<svg width="16" height="16" viewBox="0 0 16 16" fill="none" xmlns="http://www.w3.org/2000/svg">
<g id="bi:eye">
<g id="Group">
<path id="Vector" d="M16 8.00269C16 8.00269 13 2.50269 8 2.50269C3 2.50269 0 8.00269 0 8.00269C0 8.00269 3 13.5027 8 13.5027C13 13.5027 16 8.00269 16 8.00269ZM1.173 8.00269C1.65651 7.26781 2.21264 6.58337 2.833 5.95969C4.12 4.67069 5.88 3.50269 8 3.50269C10.12 3.50269 11.879 4.67069 13.168 5.95969C13.7884 6.58337 14.3445 7.26781 14.828 8.00269C14.77 8.08969 14.706 8.18569 14.633 8.29069C14.298 8.77069 13.803 9.41069 13.168 10.0457C11.879 11.3347 10.119 12.5027 8 12.5027C5.88 12.5027 4.121 11.3347 2.832 10.0457C2.21165 9.422 1.65652 8.73756 1.173 8.00269Z" fill="#292D32" fill-opacity="0.8"/>
<path id="Vector_2" d="M8 5.50269C7.33696 5.50269 6.70107 5.76608 6.23223 6.23492C5.76339 6.70376 5.5 7.33964 5.5 8.00269C5.5 8.66573 5.76339 9.30161 6.23223 9.77045C6.70107 10.2393 7.33696 10.5027 8 10.5027C8.66304 10.5027 9.29893 10.2393 9.76777 9.77045C10.2366 9.30161 10.5 8.66573 10.5 8.00269C10.5 7.33964 10.2366 6.70376 9.76777 6.23492C9.29893 5.76608 8.66304 5.50269 8 5.50269ZM4.5 8.00269C4.5 7.07443 4.86875 6.18419 5.52513 5.52781C6.1815 4.87143 7.07174 4.50269 8 4.50269C8.92826 4.50269 9.8185 4.87143 10.4749 5.52781C11.1313 6.18419 11.5 7.07443 11.5 8.00269C11.5 8.93094 11.1313 9.82118 10.4749 10.4776C9.8185 11.1339 8.92826 11.5027 8 11.5027C7.07174 11.5027 6.1815 11.1339 5.52513 10.4776C4.86875 9.82118 4.5 8.93094 4.5 8.00269Z" fill="#292D32" fill-opacity="0.8"/>
</g>
</g>
</svg>
