<svg width="31" height="32" viewBox="0 0 31 32" fill="none" xmlns="http://www.w3.org/2000/svg">
<g id="svgexport-10 (18) 1">
<g id="Group">
<path id="Vector" d="M7.712 0C6.6517 0 5.78418 0.9 5.78418 2V30C5.78418 31.1 6.6517 32 7.712 32H26.9902C28.0505 32 28.9181 31.1 28.9181 30V8L21.2068 0H7.712Z" fill="#E2E5E7"/>
<path id="Vector_2" d="M23.1349 8H28.9183L21.207 0V6C21.207 7.1 22.0746 8 23.1349 8Z" fill="#B0B7BD"/>
<path id="Vector_3" d="M28.918 14L23.1345 8H28.918V14Z" fill="#CAD1D8"/>
<path id="Vector_4" d="M25.0623 26C25.0623 26.55 24.6286 27 24.0984 27H2.89238C2.36223 27 1.92847 26.55 1.92847 26V16C1.92847 15.45 2.36223 15 2.89238 15H24.0984C24.6286 15 25.0623 15.45 25.0623 16V26Z" fill="#F15642"/>
<path id="Vector_5" d="M6.13013 18.947C6.13013 18.683 6.33062 18.395 6.65353 18.395H8.43388C9.43634 18.395 10.3386 19.091 10.3386 20.425C10.3386 21.689 9.43634 22.393 8.43388 22.393H7.14705V23.449C7.14705 23.801 6.93114 24 6.65353 24C6.39906 24 6.13013 23.801 6.13013 23.449V18.947ZM7.14705 19.402V21.394H8.43388C8.95053 21.394 9.35923 20.921 9.35923 20.425C9.35923 19.866 8.95053 19.402 8.43388 19.402H7.14705ZM11.8481 24C11.5936 24 11.316 23.856 11.316 23.505V18.963C11.316 18.676 11.5936 18.467 11.8481 18.467H13.613C17.1351 18.467 17.058 24 13.6824 24H11.8481ZM12.3339 19.443V23.025H13.613C15.6941 23.025 15.7866 19.443 13.613 19.443H12.3339ZM18.3072 19.507V20.778H20.2726C20.5502 20.778 20.8279 21.066 20.8279 21.345C20.8279 21.609 20.5502 21.825 20.2726 21.825H18.3072V23.504C18.3072 23.784 18.1154 23.999 17.8455 23.999C17.5062 23.999 17.299 23.784 17.299 23.504V18.962C17.299 18.675 17.5072 18.466 17.8455 18.466H20.5512C20.8905 18.466 21.091 18.675 21.091 18.962C21.091 19.218 20.8905 19.506 20.5512 19.506H18.3072V19.507Z" fill="white"/>
<path id="Vector_6" d="M24.0985 27H5.78418V28H24.0985C24.6287 28 25.0624 27.55 25.0624 27V26C25.0624 26.55 24.6287 27 24.0985 27Z" fill="#CAD1D8"/>
</g>
</g>
</svg>
