<svg width="18" height="16" viewBox="0 0 18 16" fill="none" xmlns="http://www.w3.org/2000/svg">
<g id="vuesax/linear/task">
<g id="task">
<path id="Vector (Stroke)" fill-rule="evenodd" clip-rule="evenodd" d="M7.5415 14.25C7.5415 13.9048 7.82133 13.625 8.1665 13.625H16.4998C16.845 13.625 17.1248 13.9048 17.1248 14.25C17.1248 14.5952 16.845 14.875 16.4998 14.875H8.1665C7.82133 14.875 7.5415 14.5952 7.5415 14.25Z" fill="white"/>
<path id="Vector (Stroke)_2" fill-rule="evenodd" clip-rule="evenodd" d="M7.5415 8.41667C7.5415 8.07149 7.82133 7.79167 8.1665 7.79167H16.4998C16.845 7.79167 17.1248 8.07149 17.1248 8.41667C17.1248 8.76185 16.845 9.04167 16.4998 9.04167H8.1665C7.82133 9.04167 7.5415 8.76185 7.5415 8.41667Z" fill="white"/>
<path id="Vector (Stroke)_3" fill-rule="evenodd" clip-rule="evenodd" d="M7.5415 2.58334C7.5415 2.23817 7.82133 1.95834 8.1665 1.95834H16.4998C16.845 1.95834 17.1248 2.23817 17.1248 2.58334C17.1248 2.92852 16.845 3.20834 16.4998 3.20834H8.1665C7.82133 3.20834 7.5415 2.92852 7.5415 2.58334Z" fill="white"/>
<path id="Vector (Stroke)_4" fill-rule="evenodd" clip-rule="evenodd" d="M5.27527 0.47473C5.51935 0.718808 5.51935 1.11454 5.27527 1.35861L2.77527 3.85861C2.5312 4.10269 2.13547 4.10269 1.89139 3.85861L1.05806 3.02528C0.813981 2.7812 0.813981 2.38547 1.05806 2.1414C1.30214 1.89732 1.69786 1.89732 1.94194 2.1414L2.33333 2.53279L4.39139 0.47473C4.63547 0.230652 5.0312 0.230652 5.27527 0.47473Z" fill="white"/>
<path id="Vector (Stroke)_5" fill-rule="evenodd" clip-rule="evenodd" d="M5.27527 6.30806C5.51935 6.55214 5.51935 6.94786 5.27527 7.19194L2.77527 9.69194C2.5312 9.93602 2.13547 9.93602 1.89139 9.69194L1.05806 8.85861C0.813981 8.61453 0.813981 8.2188 1.05806 7.97472C1.30214 7.73065 1.69786 7.73065 1.94194 7.97472L2.33333 8.36612L4.39139 6.30806C4.63547 6.06398 5.0312 6.06398 5.27527 6.30806Z" fill="white"/>
<path id="Vector (Stroke)_6" fill-rule="evenodd" clip-rule="evenodd" d="M5.27527 12.1414C5.51935 12.3855 5.51935 12.7812 5.27527 13.0253L2.77527 15.5253C2.5312 15.7694 2.13547 15.7694 1.89139 15.5253L1.05806 14.692C0.813981 14.4479 0.813981 14.0521 1.05806 13.8081C1.30214 13.564 1.69786 13.564 1.94194 13.8081L2.33333 14.1995L4.39139 12.1414C4.63547 11.8973 5.0312 11.8973 5.27527 12.1414Z" fill="white"/>
</g>
</g>
</svg>
