<svg width="16" height="16" viewBox="0 0 16 16" fill="none" xmlns="http://www.w3.org/2000/svg">
<g id="bi:eye">
<g id="Group">
<path id="Vector" d="M16 8.00293C16 8.00293 13 2.50293 8 2.50293C3 2.50293 0 8.00293 0 8.00293C0 8.00293 3 13.5029 8 13.5029C13 13.5029 16 8.00293 16 8.00293ZM1.173 8.00293C1.65651 7.26805 2.21264 6.58362 2.833 5.95993C4.12 4.67093 5.88 3.50293 8 3.50293C10.12 3.50293 11.879 4.67093 13.168 5.95993C13.7884 6.58362 14.3445 7.26805 14.828 8.00293C14.77 8.08993 14.706 8.18593 14.633 8.29093C14.298 8.77093 13.803 9.41093 13.168 10.0459C11.879 11.3349 10.119 12.5029 8 12.5029C5.88 12.5029 4.121 11.3349 2.832 10.0459C2.21165 9.42224 1.65652 8.7378 1.173 8.00293Z" fill="#797979"/>
<path id="Vector_2" d="M8 5.50293C7.33696 5.50293 6.70107 5.76632 6.23223 6.23516C5.76339 6.704 5.5 7.33989 5.5 8.00293C5.5 8.66597 5.76339 9.30186 6.23223 9.7707C6.70107 10.2395 7.33696 10.5029 8 10.5029C8.66304 10.5029 9.29893 10.2395 9.76777 9.7707C10.2366 9.30186 10.5 8.66597 10.5 8.00293C10.5 7.33989 10.2366 6.704 9.76777 6.23516C9.29893 5.76632 8.66304 5.50293 8 5.50293ZM4.5 8.00293C4.5 7.07467 4.86875 6.18443 5.52513 5.52806C6.1815 4.87168 7.07174 4.50293 8 4.50293C8.92826 4.50293 9.8185 4.87168 10.4749 5.52806C11.1313 6.18443 11.5 7.07467 11.5 8.00293C11.5 8.93119 11.1313 9.82143 10.4749 10.4778C9.8185 11.1342 8.92826 11.5029 8 11.5029C7.07174 11.5029 6.1815 11.1342 5.52513 10.4778C4.86875 9.82143 4.5 8.93119 4.5 8.00293Z" fill="#797979"/>
</g>
</g>
</svg>
