<svg width="16" height="16" viewBox="0 0 16 16" fill="none" xmlns="http://www.w3.org/2000/svg">
<g id="vuesax/outline/setting-2">
<g id="setting-2">
<path id="Vector" d="M8 10.5C6.62 10.5 5.5 9.38 5.5 8C5.5 6.62 6.62 5.5 8 5.5C9.38 5.5 10.5 6.62 10.5 8C10.5 9.38 9.38 10.5 8 10.5ZM8 6.5C7.17333 6.5 6.5 7.17333 6.5 8C6.5 8.82667 7.17333 9.5 8 9.5C8.82667 9.5 9.5 8.82667 9.5 8C9.5 7.17333 8.82667 6.5 8 6.5Z" fill="#797979"/>
<path id="Vector_2" d="M10.14 14.7932C10 14.7932 9.86004 14.7732 9.72004 14.7399C9.30671 14.6265 8.96004 14.3665 8.74004 13.9999L8.66004 13.8665C8.26671 13.1865 7.72671 13.1865 7.33337 13.8665L7.26004 13.9932C7.04004 14.3665 6.69337 14.6332 6.28004 14.7399C5.86004 14.8532 5.42671 14.7932 5.06004 14.5732L3.91337 13.9132C3.50671 13.6799 3.21337 13.2999 3.08671 12.8399C2.96671 12.3799 3.02671 11.9065 3.26004 11.4999C3.45337 11.1599 3.50671 10.8532 3.39337 10.6599C3.28004 10.4665 2.99337 10.3532 2.60004 10.3532C1.62671 10.3532 0.833374 9.55987 0.833374 8.58653V7.4132C0.833374 6.43987 1.62671 5.64653 2.60004 5.64653C2.99337 5.64653 3.28004 5.5332 3.39337 5.33987C3.50671 5.14653 3.46004 4.83987 3.26004 4.49987C3.02671 4.0932 2.96671 3.6132 3.08671 3.15987C3.20671 2.69987 3.50004 2.31987 3.91337 2.08653L5.06671 1.42653C5.82004 0.979865 6.81337 1.23987 7.26671 2.00653L7.34671 2.13987C7.74004 2.81987 8.28004 2.81987 8.67337 2.13987L8.74671 2.0132C9.20004 1.23987 10.1934 0.979865 10.9534 1.4332L12.1 2.0932C12.5067 2.32653 12.8 2.70653 12.9267 3.16653C13.0467 3.62653 12.9867 4.09987 12.7534 4.50653C12.56 4.84653 12.5067 5.1532 12.62 5.34653C12.7334 5.53987 13.02 5.6532 13.4134 5.6532C14.3867 5.6532 15.18 6.44653 15.18 7.41987V8.5932C15.18 9.56653 14.3867 10.3599 13.4134 10.3599C13.02 10.3599 12.7334 10.4732 12.62 10.6665C12.5067 10.8599 12.5534 11.1665 12.7534 11.5065C12.9867 11.9132 13.0534 12.3932 12.9267 12.8465C12.8067 13.3065 12.5134 13.6865 12.1 13.9199L10.9467 14.5799C10.6934 14.7199 10.42 14.7932 10.14 14.7932ZM8.00004 12.3265C8.59337 12.3265 9.14671 12.6999 9.52671 13.3599L9.60004 13.4865C9.68004 13.6265 9.81337 13.7265 9.97337 13.7665C10.1334 13.8065 10.2934 13.7865 10.4267 13.7065L11.58 13.0399C11.7534 12.9399 11.8867 12.7732 11.94 12.5732C11.9934 12.3732 11.9667 12.1665 11.8667 11.9932C11.4867 11.3399 11.44 10.6665 11.7334 10.1532C12.0267 9.63986 12.6334 9.34653 13.3934 9.34653C13.82 9.34653 14.16 9.00653 14.16 8.57987V7.40653C14.16 6.98653 13.82 6.63987 13.3934 6.63987C12.6334 6.63987 12.0267 6.34653 11.7334 5.8332C11.44 5.31987 11.4867 4.64653 11.8667 3.9932C11.9667 3.81987 11.9934 3.6132 11.94 3.4132C11.8867 3.2132 11.76 3.0532 11.5867 2.94653L10.4334 2.28653C10.1467 2.1132 9.76671 2.2132 9.59337 2.50653L9.52004 2.6332C9.14004 3.2932 8.58671 3.66653 7.99337 3.66653C7.40004 3.66653 6.84671 3.2932 6.46671 2.6332L6.39337 2.49987C6.22671 2.21987 5.85337 2.11987 5.56671 2.28653L4.41337 2.9532C4.24004 3.0532 4.10671 3.21987 4.05337 3.41987C4.00004 3.61987 4.02671 3.82653 4.12671 3.99987C4.50671 4.6532 4.55337 5.32653 4.26004 5.83987C3.96671 6.3532 3.36004 6.64653 2.60004 6.64653C2.17337 6.64653 1.83337 6.98653 1.83337 7.4132V8.58653C1.83337 9.00653 2.17337 9.3532 2.60004 9.3532C3.36004 9.3532 3.96671 9.64653 4.26004 10.1599C4.55337 10.6732 4.50671 11.3465 4.12671 11.9999C4.02671 12.1732 4.00004 12.3799 4.05337 12.5799C4.10671 12.7799 4.23337 12.9399 4.40671 13.0465L5.56004 13.7065C5.70004 13.7932 5.86671 13.8132 6.02004 13.7732C6.18004 13.7332 6.31337 13.6265 6.40004 13.4865L6.47337 13.3599C6.85337 12.7065 7.40671 12.3265 8.00004 12.3265Z" fill="#797979"/>
</g>
</g>
</svg>
