<svg width="21" height="20" viewBox="0 0 21 20" fill="none" xmlns="http://www.w3.org/2000/svg">
<g id="vuesax/linear/cpu-setting">
<g id="cpu-setting">
<path id="Vector (Stroke)" fill-rule="evenodd" clip-rule="evenodd" d="M3.50731 3.37222C4.52981 2.3552 6.04761 1.97919 7.95901 1.97919H12.3827C14.2941 1.97919 15.8119 2.3552 16.8344 3.37222C17.8569 4.38923 18.235 5.89888 18.235 7.80002C18.235 8.17972 17.9255 8.48752 17.5438 8.48752C17.162 8.48752 16.8526 8.17972 16.8526 7.80002C16.8526 6.03449 16.4933 4.97748 15.8569 4.34449C15.2205 3.7115 14.1578 3.35419 12.3827 3.35419H7.95901C6.18396 3.35419 5.12123 3.7115 4.48483 4.34449C3.84843 4.97748 3.48918 6.03449 3.48918 7.80002V12.2C3.48918 13.9655 3.84843 15.0226 4.48483 15.6556C5.12123 16.2885 6.18396 16.6459 7.95901 16.6459C8.34075 16.6459 8.65022 16.9537 8.65022 17.3334C8.65022 17.713 8.34075 18.0209 7.95901 18.0209C6.04761 18.0209 4.52981 17.6448 3.50731 16.6278C2.48481 15.6108 2.10677 14.1012 2.10677 12.2V7.80002C2.10677 5.89888 2.48481 4.38923 3.50731 3.37222Z" fill="white"/>
<path id="Vector (Stroke)_2" fill-rule="evenodd" clip-rule="evenodd" d="M5.82286 5.67534C6.53431 4.9677 7.56826 4.72919 8.78845 4.72919H11.5533C12.8989 4.72919 14.0189 5.01675 14.7234 5.9086C14.9592 6.20716 14.9071 6.63936 14.6069 6.87395C14.3068 7.10853 13.8722 7.05667 13.6364 6.75811C13.3271 6.36662 12.7513 6.10419 11.5533 6.10419H8.78845C7.70461 6.10419 7.12573 6.324 6.80038 6.64761C6.47502 6.97123 6.25402 7.54699 6.25402 8.62502V11.375C6.25402 12.5668 6.51802 13.1423 6.90604 13.4499C7.20456 13.6866 7.25366 14.1191 7.01571 14.416C6.77776 14.713 6.34288 14.7618 6.04436 14.5251C5.16056 13.8244 4.8716 12.7133 4.8716 11.375V8.62502C4.8716 7.41138 5.1114 6.38298 5.82286 5.67534Z" fill="white"/>
<path id="Vector (Stroke)_3" fill-rule="evenodd" clip-rule="evenodd" d="M6.49364 0.145844C6.87538 0.145844 7.18485 0.453648 7.18485 0.833343V2.66668C7.18485 3.04637 6.87538 3.35418 6.49364 3.35418C6.11189 3.35418 5.80243 3.04637 5.80243 2.66668V0.833343C5.80243 0.453648 6.11189 0.145844 6.49364 0.145844Z" fill="white"/>
<path id="Vector (Stroke)_4" fill-rule="evenodd" clip-rule="evenodd" d="M10.1709 0.145844C10.5526 0.145844 10.8621 0.453648 10.8621 0.833343V2.66668C10.8621 3.04637 10.5526 3.35418 10.1709 3.35418C9.78912 3.35418 9.47966 3.04637 9.47966 2.66668V0.833343C9.47966 0.453648 9.78912 0.145844 10.1709 0.145844Z" fill="white"/>
<path id="Vector (Stroke)_5" fill-rule="evenodd" clip-rule="evenodd" d="M13.8573 0.145844C14.2391 0.145844 14.5485 0.453648 14.5485 0.833343V2.66668C14.5485 3.04637 14.2391 3.35418 13.8573 3.35418C13.4756 3.35418 13.1661 3.04637 13.1661 2.66668V0.833343C13.1661 0.453648 13.4756 0.145844 13.8573 0.145844Z" fill="white"/>
<path id="Vector (Stroke)_6" fill-rule="evenodd" clip-rule="evenodd" d="M16.8526 6.33334C16.8526 5.95365 17.162 5.64584 17.5438 5.64584H19.387C19.7687 5.64584 20.0782 5.95365 20.0782 6.33334C20.0782 6.71304 19.7687 7.02084 19.387 7.02084H17.5438C17.162 7.02084 16.8526 6.71304 16.8526 6.33334Z" fill="white"/>
<path id="Vector (Stroke)_7" fill-rule="evenodd" clip-rule="evenodd" d="M6.49364 16.6458C6.87538 16.6458 7.18485 16.9536 7.18485 17.3333V19.1667C7.18485 19.5464 6.87538 19.8542 6.49364 19.8542C6.11189 19.8542 5.80243 19.5464 5.80243 19.1667V17.3333C5.80243 16.9536 6.11189 16.6458 6.49364 16.6458Z" fill="white"/>
<path id="Vector (Stroke)_8" fill-rule="evenodd" clip-rule="evenodd" d="M0.263535 6.33334C0.263535 5.95365 0.573 5.64584 0.954744 5.64584H2.79797C3.17971 5.64584 3.48918 5.95365 3.48918 6.33334C3.48918 6.71304 3.17971 7.02084 2.79797 7.02084H0.954744C0.573 7.02084 0.263535 6.71304 0.263535 6.33334Z" fill="white"/>
<path id="Vector (Stroke)_9" fill-rule="evenodd" clip-rule="evenodd" d="M0.263535 10C0.263535 9.6203 0.573 9.3125 0.954744 9.3125H2.79797C3.17971 9.3125 3.48918 9.6203 3.48918 10C3.48918 10.3797 3.17971 10.6875 2.79797 10.6875H0.954744C0.573 10.6875 0.263535 10.3797 0.263535 10Z" fill="white"/>
<path id="Vector (Stroke)_10" fill-rule="evenodd" clip-rule="evenodd" d="M0.263535 13.6667C0.263535 13.287 0.573 12.9792 0.954744 12.9792H2.79797C3.17971 12.9792 3.48918 13.287 3.48918 13.6667C3.48918 14.0464 3.17971 14.3542 2.79797 14.3542H0.954744C0.573 14.3542 0.263535 14.0464 0.263535 13.6667Z" fill="white"/>
<path id="Vector (Stroke)_11" fill-rule="evenodd" clip-rule="evenodd" d="M14.5117 13.8134C14.0841 13.8134 13.7375 14.1581 13.7375 14.5834C13.7375 15.0086 14.0841 15.3534 14.5117 15.3534C14.9392 15.3534 15.2858 15.0086 15.2858 14.5834C15.2858 14.1581 14.9392 13.8134 14.5117 13.8134ZM12.3551 14.5834C12.3551 13.3987 13.3206 12.4384 14.5117 12.4384C15.7027 12.4384 16.6682 13.3987 16.6682 14.5834C16.6682 15.768 15.7027 16.7284 14.5117 16.7284C13.3206 16.7284 12.3551 15.768 12.3551 14.5834Z" fill="white"/>
<path id="Vector (Stroke)_12" fill-rule="evenodd" clip-rule="evenodd" d="M13.0514 10.755C13.0069 10.6807 12.9273 10.675 12.8837 10.7008L12.8781 10.7041L12.0304 11.1951C11.9247 11.2543 11.8839 11.3967 11.9476 11.5053L11.9489 11.5075C12.2439 12.0148 12.3572 12.6346 12.0464 13.1719C11.7353 13.7098 11.139 13.9233 10.5487 13.9233C10.4236 13.9233 10.3183 14.028 10.3183 14.1525V15.005C10.3183 15.1457 10.4278 15.2362 10.5362 15.2343L10.5487 15.2341C11.139 15.2341 11.7353 15.4477 12.0464 15.9856C12.3572 16.5229 12.2439 17.1427 11.9489 17.65L11.9476 17.6522C11.8878 17.7542 11.917 17.8964 12.0395 17.9676C12.0394 17.9676 12.0396 17.9677 12.0395 17.9676L12.8745 18.4514C12.9345 18.4845 13.0143 18.4645 13.0514 18.4025L13.0526 18.4005L13.1053 18.3131C13.4001 17.8091 13.8813 17.4044 14.5025 17.4044C15.1236 17.4044 15.6048 17.8091 15.8996 18.3132L15.9535 18.4025C15.998 18.4768 16.0776 18.4825 16.1212 18.4567L16.1268 18.4534L16.9745 17.9624C17.0802 17.9032 17.121 17.7608 17.0573 17.6522L17.056 17.65C16.7611 17.1427 16.6477 16.5229 16.9585 15.9856C17.2696 15.4477 17.8659 15.2342 18.4562 15.2342C18.5813 15.2342 18.6866 15.1295 18.6866 15.005V14.1525C18.6866 14.028 18.5813 13.9233 18.4562 13.9233C17.8659 13.9233 17.2696 13.7098 16.9585 13.1719C16.6477 12.6346 16.7611 12.0148 17.056 11.5075L17.0573 11.5053C17.1172 11.4032 17.0878 11.261 16.9652 11.1898C16.9652 11.1897 16.9653 11.1898 16.9652 11.1898L16.1304 10.7061C16.0704 10.673 15.9906 10.693 15.9535 10.755L15.9523 10.7571L15.8996 10.8444C15.6048 11.3484 15.1236 11.7531 14.5025 11.7531C13.8813 11.7531 13.4001 11.3484 13.1053 10.8444L13.0514 10.755ZM14.2386 10.0505C13.8226 9.35674 12.9095 9.08775 12.1799 9.51732L11.3475 9.99951C10.5729 10.4366 10.3024 11.4272 10.7527 12.1967C10.853 12.3696 10.8512 12.4579 10.8466 12.4852C10.825 12.5029 10.749 12.5483 10.5487 12.5483C9.6601 12.5483 8.93591 13.2686 8.93591 14.1525V15.005C8.93591 15.8884 9.65179 16.6212 10.5535 16.6092C10.7502 16.6099 10.8252 16.6547 10.8466 16.6723C10.8512 16.6996 10.853 16.7879 10.7527 16.9608C10.2976 17.7385 10.5817 18.7136 11.3433 19.1555L12.1823 19.6416L12.1873 19.6444C12.9009 20.05 13.8149 19.8136 14.2386 19.107C14.2388 19.1066 14.2391 19.1062 14.2393 19.1058L14.2934 19.0162L14.299 19.0067C14.3987 18.8351 14.4759 18.7916 14.5025 18.7814C14.529 18.7916 14.6062 18.8351 14.7059 19.0067L14.7656 19.1058C14.7658 19.1062 14.7661 19.1066 14.7663 19.107C15.1823 19.8008 16.0953 20.0697 16.8249 19.6402L17.6574 19.158C18.432 18.7209 18.7025 17.7303 18.2522 16.9608C18.1519 16.788 18.1537 16.6996 18.1583 16.6723C18.1799 16.6546 18.2559 16.6092 18.4562 16.6092C19.3448 16.6092 20.069 15.8889 20.069 15.005V14.1525C20.069 13.2686 19.3448 12.5483 18.4562 12.5483C18.2559 12.5483 18.1799 12.5029 18.1583 12.4852C18.1537 12.4579 18.1519 12.3695 18.2523 12.1966C18.7073 11.419 18.4232 10.4438 17.6617 10.002L16.8226 9.51592L16.8176 9.51309C16.104 9.10749 15.19 9.34389 14.7663 10.0505C14.7661 10.0509 14.7658 10.0513 14.7656 10.0517L14.7115 10.1413L14.7059 10.1508C14.6062 10.3224 14.529 10.3659 14.5025 10.3761C14.4759 10.3659 14.3987 10.3224 14.299 10.1508L14.2393 10.0517C14.2391 10.0513 14.2388 10.0509 14.2386 10.0505Z" fill="white"/>
</g>
</g>
</svg>
