<svg width="22" height="22" viewBox="0 0 22 22" fill="none" xmlns="http://www.w3.org/2000/svg">
<g id="vuesax/outline/task-square">
<g id="task-square">
<path id="Vector" d="M16.1517 8.81833H11.3392C10.9633 8.81833 10.6517 8.50666 10.6517 8.13083C10.6517 7.755 10.9633 7.44333 11.3392 7.44333H16.1517C16.5275 7.44333 16.8392 7.755 16.8392 8.13083C16.8392 8.50666 16.5367 8.81833 16.1517 8.81833Z" fill="white"/>
<path id="Vector_2" d="M6.52667 9.51501C6.3525 9.51501 6.17834 9.45085 6.04084 9.31335L5.35334 8.62585C5.0875 8.36001 5.0875 7.92001 5.35334 7.65418C5.61917 7.38835 6.05917 7.38835 6.325 7.65418L6.52667 7.85585L8.10334 6.27918C8.36917 6.01335 8.80917 6.01335 9.075 6.27918C9.34084 6.54501 9.34084 6.98501 9.075 7.25085L7.0125 9.31335C6.88417 9.44168 6.71 9.51501 6.52667 9.51501Z" fill="white"/>
<path id="Vector_3" d="M16.1517 15.235H11.3392C10.9633 15.235 10.6517 14.9233 10.6517 14.5475C10.6517 14.1717 10.9633 13.86 11.3392 13.86H16.1517C16.5275 13.86 16.8392 14.1717 16.8392 14.5475C16.8392 14.9233 16.5367 15.235 16.1517 15.235Z" fill="white"/>
<path id="Vector_4" d="M6.52667 15.9317C6.3525 15.9317 6.17834 15.8675 6.04084 15.73L5.35334 15.0425C5.0875 14.7767 5.0875 14.3367 5.35334 14.0708C5.61917 13.805 6.05917 13.805 6.325 14.0708L6.52667 14.2725L8.10334 12.6958C8.36917 12.43 8.80917 12.43 9.075 12.6958C9.34084 12.9617 9.34084 13.4017 9.075 13.6675L7.0125 15.73C6.88417 15.8583 6.71 15.9317 6.52667 15.9317Z" fill="white"/>
<path id="Vector_5" d="M13.75 20.8542H8.25001C3.27251 20.8542 1.14584 18.7275 1.14584 13.75V8.25001C1.14584 3.27251 3.27251 1.14584 8.25001 1.14584H13.75C18.7275 1.14584 20.8542 3.27251 20.8542 8.25001V13.75C20.8542 18.7275 18.7275 20.8542 13.75 20.8542ZM8.25001 2.52084C4.02418 2.52084 2.52084 4.02418 2.52084 8.25001V13.75C2.52084 17.9758 4.02418 19.4792 8.25001 19.4792H13.75C17.9758 19.4792 19.4792 17.9758 19.4792 13.75V8.25001C19.4792 4.02418 17.9758 2.52084 13.75 2.52084H8.25001Z" fill="white"/>
</g>
</g>
</svg>
