<svg width="18" height="20" viewBox="0 0 18 20" fill="none" xmlns="http://www.w3.org/2000/svg">
<g id="vuesax/linear/user">
<g id="user">
<path id="Vector (Stroke)" fill-rule="evenodd" clip-rule="evenodd" d="M8.76796 1.52084C6.60474 1.52084 4.85111 3.26507 4.85111 5.41668C4.85111 7.56829 6.60474 9.31251 8.76796 9.31251C10.9312 9.31251 12.6848 7.56829 12.6848 5.41668C12.6848 3.26507 10.9312 1.52084 8.76796 1.52084ZM3.46869 5.41668C3.46869 2.50568 5.84125 0.145844 8.76796 0.145844C11.6947 0.145844 14.0672 2.50568 14.0672 5.41668C14.0672 8.32768 11.6947 10.6875 8.76796 10.6875C5.84125 10.6875 3.46869 8.32768 3.46869 5.41668Z" fill="white"/>
<path id="Vector (Stroke)_2" fill-rule="evenodd" clip-rule="evenodd" d="M0.160095 19.1667C0.160095 15.1142 4.15724 12.0625 8.76796 12.0625C13.3787 12.0625 17.3758 15.1142 17.3758 19.1667C17.3758 19.5464 17.0664 19.8542 16.6846 19.8542C16.3029 19.8542 15.9934 19.5464 15.9934 19.1667C15.9934 16.1241 12.8941 13.4375 8.76796 13.4375C4.64178 13.4375 1.54251 16.1241 1.54251 19.1667C1.54251 19.5464 1.23305 19.8542 0.851305 19.8542C0.46956 19.8542 0.160095 19.5464 0.160095 19.1667Z" fill="white"/>
</g>
</g>
</svg>
