<svg width="18" height="18" viewBox="0 0 18 18" fill="none" xmlns="http://www.w3.org/2000/svg">
<g id="eos-icons:project-outlined">
<path id="Vector" d="M9 5.25C9.41421 5.25 9.75 4.91421 9.75 4.5C9.75 4.08579 9.41421 3.75 9 3.75C8.58579 3.75 8.25 4.08579 8.25 4.5C8.25 4.91421 8.58579 5.25 9 5.25Z" fill="#797979"/>
<path id="Vector_2" d="M4.5 12.75H13.5V14.25H4.5V12.75ZM7.5 8.8725L9.594 10.968L12.543 8.01675L13.5 9V6H10.5L11.4825 6.95625L9.59325 8.8455L7.5 6.75L4.5 9.75L5.5605 10.8105L7.5 8.8725Z" fill="#797979"/>
<path id="Vector_3" d="M14.25 2.25011H11.7765C11.7029 2.13922 11.6227 2.03279 11.5365 1.93136L11.529 1.92236C10.978 1.28055 10.2027 0.873327 9.3615 0.783864C9.12265 0.738386 8.87735 0.738386 8.6385 0.783864C7.79733 0.873327 7.02205 1.28055 6.471 1.92236L6.4635 1.93136C6.3773 2.03254 6.29716 2.13873 6.2235 2.24936L3.75 2.25011C3.15345 2.25071 2.5815 2.48795 2.15967 2.90978C1.73784 3.33161 1.5006 3.90356 1.5 4.50011V15.0001C1.5006 15.5967 1.73784 16.1686 2.15967 16.5904C2.5815 17.0123 3.15345 17.2495 3.75 17.2501H14.25C14.8466 17.2495 15.4185 17.0123 15.8403 16.5904C16.2622 16.1686 16.4994 15.5967 16.5 15.0001V4.50011C16.4994 3.90356 16.2622 3.33161 15.8403 2.90978C15.4185 2.48795 14.8466 2.25071 14.25 2.25011ZM15 15.0001C15 15.199 14.921 15.3898 14.7803 15.5304C14.6397 15.6711 14.4489 15.7501 14.25 15.7501H3.75C3.55115 15.7499 3.3605 15.6708 3.21989 15.5302C3.07928 15.3896 3.0002 15.199 3 15.0001V4.50011C3.0002 4.30126 3.07928 4.11061 3.21989 3.97C3.3605 3.82939 3.55115 3.75031 3.75 3.75011H7.1625C7.24857 3.32626 7.47852 2.94519 7.8134 2.67147C8.14828 2.39776 8.56749 2.24823 9 2.24823C9.43251 2.24823 9.85172 2.39776 10.1866 2.67147C10.5215 2.94519 10.7514 3.32626 10.8375 3.75011H14.25C14.4489 3.75031 14.6395 3.82939 14.7801 3.97C14.9207 4.11061 14.9998 4.30126 15 4.50011V15.0001Z" fill="#797979"/>
</g>
</svg>
