<svg width="18" height="18" viewBox="0 0 18 18" fill="none" xmlns="http://www.w3.org/2000/svg">
<g id="material-symbols:attach-money">
<path id="Vector" d="M8.26865 15.75V14.1375C7.60615 13.9875 7.03415 13.7 6.55265 13.275C6.07115 12.85 5.71815 12.25 5.49365 11.475L6.88115 10.9125C7.06865 11.5125 7.3469 11.9688 7.7159 12.2812C8.0849 12.5938 8.56915 12.75 9.16865 12.75C9.68115 12.75 10.1157 12.6343 10.4722 12.4028C10.8287 12.1713 11.0067 11.812 11.0062 11.325C11.0062 10.8875 10.8687 10.5408 10.5937 10.2847C10.3187 10.0288 9.68115 9.738 8.68115 9.4125C7.60615 9.075 6.86865 8.67175 6.46865 8.20275C6.06865 7.73375 5.86865 7.162 5.86865 6.4875C5.86865 5.675 6.13115 5.04375 6.65615 4.59375C7.18115 4.14375 7.71865 3.8875 8.26865 3.825V2.25H9.76865V3.825C10.3937 3.925 10.9094 4.15325 11.3159 4.50975C11.7224 4.86625 12.0192 5.3005 12.2062 5.8125L10.8187 6.4125C10.6687 6.0125 10.4562 5.7125 10.1812 5.5125C9.90615 5.3125 9.53115 5.2125 9.05615 5.2125C8.50615 5.2125 8.0874 5.3345 7.7999 5.5785C7.5124 5.8225 7.36865 6.1255 7.36865 6.4875C7.36865 6.9 7.55615 7.225 7.93115 7.4625C8.30615 7.7 8.95615 7.95 9.88115 8.2125C10.7437 8.4625 11.3969 8.8595 11.8409 9.4035C12.2849 9.9475 12.5067 10.5755 12.5062 11.2875C12.5062 12.175 12.2437 12.85 11.7187 13.3125C11.1937 13.775 10.5437 14.0625 9.76865 14.175V15.75H8.26865Z" fill="#797979"/>
</g>
</svg>
