<svg width="18" height="18" viewBox="0 0 18 18" fill="none" xmlns="http://www.w3.org/2000/svg">
<g id="mingcute:department-line" clip-path="url(#clip0_1160_37036)">
<g id="Group">
<path id="Vector" fill-rule="evenodd" clip-rule="evenodd" d="M11.25 4.4999C11.2502 4.96536 11.106 5.41942 10.8373 5.79954C10.5687 6.17966 10.1888 6.46714 9.75002 6.6224V8.2499H12C12.5968 8.2499 13.1691 8.48695 13.591 8.90891C14.013 9.33087 14.25 9.90316 14.25 10.4999V11.3774C14.7506 11.5543 15.1726 11.9025 15.4413 12.3605C15.71 12.8185 15.8081 13.3567 15.7184 13.88C15.6286 14.4033 15.3567 14.8781 14.9508 15.2203C14.5449 15.5626 14.031 15.7503 13.5 15.7503C12.9691 15.7503 12.4552 15.5626 12.0492 15.2203C11.6433 14.8781 11.3714 14.4033 11.2817 13.88C11.1919 13.3567 11.2901 12.8185 11.5588 12.3605C11.8275 11.9025 12.2494 11.5543 12.75 11.3774V10.4999C12.75 10.301 12.671 10.1102 12.5304 9.96957C12.3897 9.82892 12.1989 9.7499 12 9.7499H6.00002C5.80111 9.7499 5.61034 9.82892 5.46969 9.96957C5.32904 10.1102 5.25002 10.301 5.25002 10.4999V11.3774C5.75064 11.5543 6.17259 11.9025 6.44129 12.3605C6.70999 12.8185 6.80814 13.3567 6.71838 13.88C6.62862 14.4033 6.35675 14.8781 5.9508 15.2203C5.54486 15.5626 5.03099 15.7503 4.50002 15.7503C3.96906 15.7503 3.45519 15.5626 3.04924 15.2203C2.6433 14.8781 2.37142 14.4033 2.28166 13.88C2.19191 13.3567 2.29005 12.8185 2.55875 12.3605C2.82745 11.9025 3.2494 11.5543 3.75002 11.3774V10.4999C3.75002 9.90316 3.98708 9.33087 4.40903 8.90891C4.83099 8.48695 5.40329 8.2499 6.00002 8.2499H8.25002V6.6224C7.86088 6.48502 7.517 6.24331 7.25598 5.92367C6.99495 5.60404 6.82682 5.2188 6.76998 4.81006C6.71313 4.40132 6.76976 3.98481 6.93366 3.60608C7.09756 3.22735 7.36243 2.90098 7.69932 2.66263C8.0362 2.42428 8.43213 2.28314 8.84382 2.25464C9.25551 2.22614 9.66711 2.31137 10.0336 2.50102C10.4001 2.69067 10.7075 2.97744 10.922 3.32997C11.1365 3.6825 11.25 4.08722 11.25 4.4999ZM9.00002 3.7499C8.80111 3.7499 8.61034 3.82892 8.46969 3.96957C8.32904 4.11022 8.25002 4.30099 8.25002 4.4999C8.25002 4.69881 8.32904 4.88958 8.46969 5.03023C8.61034 5.17088 8.80111 5.2499 9.00002 5.2499C9.19893 5.2499 9.3897 5.17088 9.53035 5.03023C9.671 4.88958 9.75002 4.69881 9.75002 4.4999C9.75002 4.30099 9.671 4.11022 9.53035 3.96957C9.3897 3.82892 9.19893 3.7499 9.00002 3.7499ZM4.50002 12.7499C4.30111 12.7499 4.11034 12.8289 3.96969 12.9696C3.82904 13.1102 3.75002 13.301 3.75002 13.4999C3.75002 13.6988 3.82904 13.8896 3.96969 14.0302C4.11034 14.1709 4.30111 14.2499 4.50002 14.2499C4.69893 14.2499 4.8897 14.1709 5.03035 14.0302C5.171 13.8896 5.25002 13.6988 5.25002 13.4999C5.25002 13.301 5.171 13.1102 5.03035 12.9696C4.8897 12.8289 4.69893 12.7499 4.50002 12.7499ZM13.5 12.7499C13.3011 12.7499 13.1103 12.8289 12.9697 12.9696C12.829 13.1102 12.75 13.301 12.75 13.4999C12.75 13.6988 12.829 13.8896 12.9697 14.0302C13.1103 14.1709 13.3011 14.2499 13.5 14.2499C13.6989 14.2499 13.8897 14.1709 14.0304 14.0302C14.171 13.8896 14.25 13.6988 14.25 13.4999C14.25 13.301 14.171 13.1102 14.0304 12.9696C13.8897 12.8289 13.6989 12.7499 13.5 12.7499Z" fill="#797979"/>
</g>
</g>
<defs>
<clipPath id="clip0_1160_37036">
<rect width="18" height="18" fill="white"/>
</clipPath>
</defs>
</svg>
