<svg width="18" height="18" viewBox="0 0 18 18" fill="none" xmlns="http://www.w3.org/2000/svg">
<g id="ph:gender-male-light">
<path id="Vector" d="M15.1875 2.39062H11.8125C11.7006 2.39063 11.5933 2.43507 11.5142 2.51419C11.4351 2.59331 11.3907 2.70061 11.3907 2.8125C11.3907 2.92439 11.4351 3.03169 11.5142 3.11081C11.5933 3.18993 11.7006 3.23438 11.8125 3.23438H14.1694L10.8788 6.5243C10.0686 5.83049 9.07363 5.38801 8.01579 5.25103C6.95794 5.11406 5.88311 5.28854 4.92292 5.7531C3.96273 6.21767 3.15885 6.95216 2.60972 7.86663C2.06059 8.7811 1.79006 9.83586 1.83124 10.9017C1.87242 11.9676 2.22353 12.9984 2.84158 13.8677C3.45963 14.7371 4.31778 15.4074 5.31096 15.7965C6.30414 16.1856 7.38922 16.2766 8.43335 16.0584C9.47747 15.8402 10.4353 15.3223 11.1896 14.568C12.1648 13.5902 12.7359 12.2807 12.7889 10.9006C12.842 9.52052 12.3731 8.17111 11.4757 7.12125L14.7657 3.83133V6.1875C14.7657 6.29939 14.8101 6.40669 14.8892 6.48581C14.9683 6.56493 15.0756 6.60938 15.1875 6.60938C15.2994 6.60938 15.4067 6.56493 15.4858 6.48581C15.565 6.40669 15.6094 6.29939 15.6094 6.1875V2.8125C15.6094 2.70061 15.565 2.59331 15.4858 2.51419C15.4067 2.43507 15.2994 2.39063 15.1875 2.39062ZM10.5933 13.9711C9.94422 14.6199 9.11733 15.0616 8.2172 15.2405C7.31707 15.4194 6.3841 15.3274 5.53627 14.9761C4.68843 14.6248 3.96379 14.03 3.45397 13.2669C2.94415 12.5038 2.67203 11.6066 2.67203 10.6889C2.67203 9.77117 2.94415 8.87404 3.45397 8.11094C3.96379 7.34784 4.68843 6.75304 5.53627 6.40174C6.3841 6.05043 7.31707 5.95841 8.2172 6.13729C9.11733 6.31617 9.94422 6.75793 10.5933 7.40672C11.4623 8.27798 11.9504 9.45833 11.9504 10.6889C11.9504 11.9195 11.4623 13.0998 10.5933 13.9711Z" fill="#797979"/>
</g>
</svg>
