<svg width="18" height="18" viewBox="0 0 18 18" fill="none" xmlns="http://www.w3.org/2000/svg">
<g id="prime:stopwatch">
<path id="Vector" d="M8.8125 4.5C5.9175 4.5 3.5625 6.855 3.5625 9.75C3.5625 12.645 5.9175 15 8.8125 15C11.7075 15 14.0625 12.645 14.0625 9.75C14.0625 6.855 11.7075 4.5 8.8125 4.5ZM8.8125 13.875C6.54 13.875 4.6875 12.0225 4.6875 9.75C4.6875 7.4775 6.54 5.625 8.8125 5.625C11.085 5.625 12.9375 7.4775 12.9375 9.75C12.9375 12.0225 11.085 13.875 8.8125 13.875ZM6.375 3.5625C6.375 3.255 6.63 3 6.9375 3H10.6875C10.995 3 11.25 3.255 11.25 3.5625C11.25 3.87 10.995 4.125 10.6875 4.125H6.9375C6.63 4.125 6.375 3.87 6.375 3.5625ZM9.375 7.5V9.75C9.375 10.0575 9.12 10.3125 8.8125 10.3125C8.505 10.3125 8.25 10.0575 8.25 9.75V7.5C8.25 7.1925 8.505 6.9375 8.8125 6.9375C9.12 6.9375 9.375 7.1925 9.375 7.5ZM14.28 6.2025C14.1675 6.315 14.025 6.3675 13.8825 6.3675C13.74 6.3675 13.5975 6.315 13.485 6.2025L12.36 5.0775C12.1425 4.86 12.1425 4.5 12.36 4.2825C12.5775 4.065 12.9375 4.065 13.155 4.2825L14.28 5.4075C14.4975 5.625 14.4975 5.985 14.28 6.2025Z" fill="#797979"/>
</g>
</svg>
