<svg width="18" height="18" viewBox="0 0 18 18" fill="none" xmlns="http://www.w3.org/2000/svg">
<g id="solar:phone-outline">
<path id="Vector" fill-rule="evenodd" clip-rule="evenodd" d="M4.29977 1.53223C5.21252 0.624728 6.71552 0.785978 7.47977 1.80748L8.42627 3.07048C9.04877 3.90148 8.99327 5.06248 8.25452 5.79673L8.07602 5.97523C8.05586 6.05017 8.05381 6.12883 8.07002 6.20473C8.11727 6.51073 8.37302 7.15873 9.44402 8.22373C10.515 9.28873 11.1675 9.54373 11.478 9.59173C11.5562 9.60835 11.6372 9.60604 11.7143 9.58498L12.0203 9.28048C12.6773 8.62798 13.6853 8.50573 14.4983 8.94748L15.9308 9.72748C17.1585 10.3935 17.4683 12.0615 16.4633 13.0612L15.3975 14.1202C15.0615 14.454 14.61 14.7322 14.0595 14.784C12.702 14.9107 9.53927 14.7487 6.21452 11.4435C3.11177 8.35798 2.51627 5.66698 2.44052 4.34098C2.40302 3.67048 2.71952 3.10348 3.12302 2.70298L4.29977 1.53223ZM6.57977 2.48173C6.19952 1.97398 5.49152 1.93348 5.09252 2.33023L3.91502 3.50023C3.66752 3.74623 3.54902 4.01773 3.56402 4.27723C3.62402 5.33098 4.10402 7.75873 7.00802 10.6462C10.0545 13.6747 12.8678 13.7655 13.9553 13.6635C14.1773 13.6432 14.3978 13.5277 14.604 13.323L15.669 12.2632C16.1025 11.8327 16.0073 11.0482 15.3938 10.7152L13.9613 9.93598C13.5653 9.72148 13.1018 9.79198 12.8138 10.0785L12.4725 10.4182L12.075 10.0192C12.4725 10.4182 12.4718 10.419 12.471 10.419L12.4703 10.4205L12.468 10.4227L12.4628 10.4272L12.4515 10.4377C12.4196 10.4668 12.3855 10.4934 12.3495 10.5172C12.2895 10.557 12.21 10.6012 12.1103 10.638C11.9078 10.7137 11.6393 10.7542 11.3078 10.7032C10.6575 10.6035 9.79577 10.1602 8.65052 9.02173C7.50602 7.88323 7.05902 7.02673 6.95852 6.37723C6.90677 6.04573 6.94802 5.77723 7.02452 5.57473C7.06694 5.46093 7.12719 5.3546 7.20302 5.25973L7.22702 5.23348L7.23752 5.22223L7.24202 5.21773L7.24427 5.21548L7.24577 5.21398L7.46177 4.99948C7.78277 4.67923 7.82777 4.14898 7.52552 3.74473L6.57977 2.48173Z" fill="#797979"/>
</g>
</svg>
