<svg width="18" height="18" viewBox="0 0 18 18" fill="none" xmlns="http://www.w3.org/2000/svg">
<g id="streamline:interface-favorite-star-reward-rating-rate-social-star-media-favorite-like-stars" clip-path="url(#clip0_1160_37055)">
<path id="Vector" d="M9.63009 1.40153L11.6744 5.52868C11.7209 5.63343 11.794 5.72417 11.8865 5.79184C11.979 5.85952 12.0876 5.90177 12.2015 5.91439L16.7144 6.58296C16.845 6.59976 16.9682 6.65338 17.0696 6.73758C17.1709 6.82177 17.2462 6.93306 17.2866 7.05844C17.3271 7.18382 17.331 7.31812 17.298 7.44565C17.265 7.57319 17.1963 7.68869 17.1001 7.77868L13.8472 11.0058C13.7642 11.0834 13.7019 11.1805 13.666 11.2883C13.6301 11.396 13.6216 11.5111 13.6415 11.623L14.4258 16.1615C14.4485 16.2919 14.4342 16.4261 14.3844 16.5488C14.3346 16.6714 14.2514 16.7776 14.1442 16.8553C14.037 16.933 13.9102 16.9791 13.7782 16.9883C13.6461 16.9975 13.5141 16.9694 13.3972 16.9072L9.33438 14.7601C9.23035 14.709 9.11599 14.6825 9.0001 14.6825C8.8842 14.6825 8.76984 14.709 8.66581 14.7601L4.60295 16.9072C4.48606 16.9694 4.35408 16.9975 4.22203 16.9883C4.08997 16.9791 3.96314 16.933 3.85597 16.8553C3.7488 16.7776 3.66559 16.6714 3.61581 16.5488C3.56603 16.4261 3.55167 16.2919 3.57438 16.1615L4.35867 11.5715C4.37854 11.4597 4.37014 11.3446 4.33421 11.2368C4.29828 11.129 4.23597 11.032 4.15295 10.9544L0.861524 7.77868C0.764147 7.68623 0.695666 7.56753 0.664377 7.43695C0.633088 7.30638 0.640334 7.16953 0.685235 7.04299C0.730137 6.91645 0.810769 6.80564 0.917363 6.72399C1.02396 6.64234 1.15194 6.59336 1.28581 6.58296L5.79867 5.91439C5.91258 5.90177 6.02119 5.85952 6.11368 5.79184C6.20618 5.72417 6.27931 5.63343 6.32581 5.52868L8.3701 1.40153C8.42577 1.28133 8.51466 1.17956 8.62629 1.10824C8.73792 1.03692 8.86763 0.999023 9.0001 0.999023C9.13256 0.999023 9.26227 1.03692 9.3739 1.10824C9.48553 1.17956 9.57442 1.28133 9.63009 1.40153Z" stroke="#797979" stroke-linecap="round" stroke-linejoin="round"/>
</g>
<defs>
<clipPath id="clip0_1160_37055">
<rect width="18" height="18" fill="white"/>
</clipPath>
</defs>
</svg>
