<svg width="18" height="18" viewBox="0 0 18 18" fill="none" xmlns="http://www.w3.org/2000/svg">
<g id="uil:bag-alt">
<path id="Vector" d="M14.25 4.875H12V4.125C12 3.52826 11.7629 2.95597 11.341 2.53401C10.919 2.11205 10.3467 1.875 9.75 1.875H8.25C7.65326 1.875 7.08097 2.11205 6.65901 2.53401C6.23705 2.95597 6 3.52826 6 4.125V4.875H3.75C3.15326 4.875 2.58097 5.11205 2.15901 5.53401C1.73705 5.95597 1.5 6.52826 1.5 7.125V13.875C1.5 14.4717 1.73705 15.044 2.15901 15.466C2.58097 15.8879 3.15326 16.125 3.75 16.125H14.25C14.8467 16.125 15.419 15.8879 15.841 15.466C16.2629 15.044 16.5 14.4717 16.5 13.875V7.125C16.5 6.52826 16.2629 5.95597 15.841 5.53401C15.419 5.11205 14.8467 4.875 14.25 4.875ZM7.5 4.125C7.5 3.92609 7.57902 3.73532 7.71967 3.59467C7.86032 3.45402 8.05109 3.375 8.25 3.375H9.75C9.94891 3.375 10.1397 3.45402 10.2803 3.59467C10.421 3.73532 10.5 3.92609 10.5 4.125V4.875H7.5V4.125ZM15 13.875C15 14.0739 14.921 14.2647 14.7803 14.4053C14.6397 14.546 14.4489 14.625 14.25 14.625H3.75C3.55109 14.625 3.36032 14.546 3.21967 14.4053C3.07902 14.2647 3 14.0739 3 13.875V9.75C4.90969 10.5076 6.94552 10.897 9 10.8975C11.0544 10.8962 13.0901 10.5069 15 9.75V13.875ZM15 8.1075C13.1088 8.93833 11.0657 9.36734 9 9.36734C6.93435 9.36734 4.8912 8.93833 3 8.1075V7.125C3 6.92609 3.07902 6.73532 3.21967 6.59467C3.36032 6.45402 3.55109 6.375 3.75 6.375H14.25C14.4489 6.375 14.6397 6.45402 14.7803 6.59467C14.921 6.73532 15 6.92609 15 7.125V8.1075Z" fill="#797979"/>
</g>
</svg>
