<svg width="22" height="22" viewBox="0 0 22 22" fill="none" xmlns="http://www.w3.org/2000/svg">
<g id="vuesax/outline/bezier">
<g id="bezier">
<path id="Vector" d="M2.74984 8.93748C1.3565 8.93748 0.229004 7.80998 0.229004 6.41665C0.229004 5.02331 1.3565 3.89581 2.74984 3.89581C4.14317 3.89581 5.27067 5.02331 5.27067 6.41665C5.27067 7.80998 4.14317 8.93748 2.74984 8.93748ZM2.74984 5.27081C2.11734 5.27081 1.604 5.78415 1.604 6.41665C1.604 7.04915 2.11734 7.56248 2.74984 7.56248C3.38234 7.56248 3.89567 7.04915 3.89567 6.41665C3.89567 5.78415 3.38234 5.27081 2.74984 5.27081Z" fill="#1370E4"/>
<path id="Vector_2" d="M19.2498 8.93748C17.8565 8.93748 16.729 7.80998 16.729 6.41665C16.729 5.02331 17.8565 3.89581 19.2498 3.89581C20.6432 3.89581 21.7707 5.02331 21.7707 6.41665C21.7707 7.80998 20.6432 8.93748 19.2498 8.93748ZM19.2498 5.27081C18.6173 5.27081 18.104 5.78415 18.104 6.41665C18.104 7.04915 18.6173 7.56248 19.2498 7.56248C19.8823 7.56248 20.3957 7.04915 20.3957 6.41665C20.3957 5.78415 19.8823 5.27081 19.2498 5.27081Z" fill="#1370E4"/>
<path id="Vector_3" d="M17.4167 7.10419H13.75C13.3742 7.10419 13.0625 6.79252 13.0625 6.41669C13.0625 6.04085 13.3742 5.72919 13.75 5.72919H17.4167C17.7925 5.72919 18.1042 6.04085 18.1042 6.41669C18.1042 6.79252 17.7925 7.10419 17.4167 7.10419Z" fill="#1370E4"/>
<path id="Vector_4" d="M8.25016 7.10419H4.5835C4.20766 7.10419 3.896 6.79252 3.896 6.41669C3.896 6.04085 4.20766 5.72919 4.5835 5.72919H8.25016C8.626 5.72919 8.93766 6.04085 8.93766 6.41669C8.93766 6.79252 8.626 7.10419 8.25016 7.10419Z" fill="#1370E4"/>
<path id="Vector_5" d="M5.49984 19.0208H3.6665C2.52984 19.0208 1.604 18.095 1.604 16.9583V15.125C1.604 13.9883 2.52984 13.0625 3.6665 13.0625H5.49984C6.6365 13.0625 7.56234 13.9883 7.56234 15.125V16.9583C7.56234 17.7833 7.0765 18.5167 6.32484 18.8375C6.07734 18.9567 5.79317 19.0208 5.49984 19.0208ZM3.6665 14.4375C3.29067 14.4375 2.979 14.7492 2.979 15.125V16.9583C2.979 17.3342 3.29067 17.6458 3.6665 17.6458H5.49984C5.5915 17.6458 5.674 17.6275 5.76567 17.5817C6.0315 17.4717 6.18734 17.2242 6.18734 16.9583V15.125C6.18734 14.7492 5.87567 14.4375 5.49984 14.4375H3.6665Z" fill="#1370E4"/>
<path id="Vector_6" d="M18.3333 19.0208H16.5C16.2067 19.0208 15.9225 18.9567 15.6475 18.8284C14.9233 18.5259 14.4375 17.7833 14.4375 16.9583V15.125C14.4375 13.9883 15.3633 13.0625 16.5 13.0625H18.3333C19.47 13.0625 20.3958 13.9883 20.3958 15.125V16.9583C20.3958 18.095 19.47 19.0208 18.3333 19.0208ZM16.5 14.4375C16.1242 14.4375 15.8125 14.7492 15.8125 15.125V16.9583C15.8125 17.2242 15.9683 17.4717 16.2067 17.5725C16.3258 17.6275 16.4083 17.6458 16.5 17.6458H18.3333C18.7092 17.6458 19.0208 17.3342 19.0208 16.9583V15.125C19.0208 14.7492 18.7092 14.4375 18.3333 14.4375H16.5Z" fill="#1370E4"/>
<path id="Vector_7" d="M12.375 9.85419H9.625C8.48833 9.85419 7.5625 8.92835 7.5625 7.79169V5.04169C7.5625 3.90502 8.48833 2.97919 9.625 2.97919H12.375C13.5117 2.97919 14.4375 3.90502 14.4375 5.04169V7.79169C14.4375 8.92835 13.5117 9.85419 12.375 9.85419ZM9.625 4.35419C9.24917 4.35419 8.9375 4.66585 8.9375 5.04169V7.79169C8.9375 8.16752 9.24917 8.47919 9.625 8.47919H12.375C12.7508 8.47919 13.0625 8.16752 13.0625 7.79169V5.04169C13.0625 4.66585 12.7508 4.35419 12.375 4.35419H9.625Z" fill="#1370E4"/>
<path id="Vector_8" d="M17.3889 14.4375C17.3614 14.4375 17.3339 14.4375 17.3064 14.4375C16.9305 14.3917 16.6555 14.0526 16.7014 13.6767C16.7197 13.5484 16.7197 13.4292 16.7197 13.3009C16.7197 10.9175 15.4272 8.7175 13.4289 7.70917C13.0897 7.535 12.9522 7.12255 13.1264 6.78338C13.3005 6.44421 13.713 6.3067 14.0522 6.48086C16.5089 7.72753 18.0947 10.4042 18.0947 13.3009C18.0947 13.4842 18.0855 13.6583 18.058 13.8417C18.0305 14.1808 17.7372 14.4375 17.3889 14.4375Z" fill="#1370E4"/>
<path id="Vector_9" d="M4.611 14.4375C4.26266 14.4375 3.96933 14.1808 3.93266 13.8325C3.91433 13.6491 3.896 13.475 3.896 13.2916C3.896 10.395 5.48183 7.71831 7.9385 6.47165C8.27766 6.29748 8.69016 6.435 8.86433 6.77416C9.0385 7.11333 8.901 7.52584 8.56183 7.70001C6.5635 8.70834 5.271 10.9083 5.271 13.2916C5.271 13.42 5.28016 13.5392 5.28933 13.6675C5.33516 14.0433 5.06016 14.3825 4.68433 14.4283C4.666 14.4375 4.6385 14.4375 4.611 14.4375Z" fill="#1370E4"/>
</g>
</g>
</svg>
