<svg width="22" height="22" viewBox="0 0 22 22" fill="none" xmlns="http://www.w3.org/2000/svg">
<g id="vuesax/outline/bezier">
<g id="bezier">
<path id="Vector" d="M2.75033 8.93766C1.35699 8.93766 0.229492 7.81016 0.229492 6.41683C0.229492 5.0235 1.35699 3.896 2.75033 3.896C4.14366 3.896 5.27116 5.0235 5.27116 6.41683C5.27116 7.81016 4.14366 8.93766 2.75033 8.93766ZM2.75033 5.271C2.11783 5.271 1.60449 5.78433 1.60449 6.41683C1.60449 7.04933 2.11783 7.56266 2.75033 7.56266C3.38283 7.56266 3.89616 7.04933 3.89616 6.41683C3.89616 5.78433 3.38283 5.271 2.75033 5.271Z" fill="#4F9CD1"/>
<path id="Vector_2" d="M19.2503 8.93766C17.857 8.93766 16.7295 7.81016 16.7295 6.41683C16.7295 5.0235 17.857 3.896 19.2503 3.896C20.6437 3.896 21.7712 5.0235 21.7712 6.41683C21.7712 7.81016 20.6437 8.93766 19.2503 8.93766ZM19.2503 5.271C18.6178 5.271 18.1045 5.78433 18.1045 6.41683C18.1045 7.04933 18.6178 7.56266 19.2503 7.56266C19.8828 7.56266 20.3962 7.04933 20.3962 6.41683C20.3962 5.78433 19.8828 5.271 19.2503 5.271Z" fill="#4F9CD1"/>
<path id="Vector_3" d="M17.4167 7.104H13.75C13.3742 7.104 13.0625 6.79234 13.0625 6.4165C13.0625 6.04067 13.3742 5.729 13.75 5.729H17.4167C17.7925 5.729 18.1042 6.04067 18.1042 6.4165C18.1042 6.79234 17.7925 7.104 17.4167 7.104Z" fill="#4F9CD1"/>
<path id="Vector_4" d="M8.24967 7.104H4.58301C4.20717 7.104 3.89551 6.79234 3.89551 6.4165C3.89551 6.04067 4.20717 5.729 4.58301 5.729H8.24967C8.62551 5.729 8.93717 6.04067 8.93717 6.4165C8.93717 6.79234 8.62551 7.104 8.24967 7.104Z" fill="#4F9CD1"/>
<path id="Vector_5" d="M5.50033 19.0208H3.66699C2.53033 19.0208 1.60449 18.095 1.60449 16.9583V15.125C1.60449 13.9883 2.53033 13.0625 3.66699 13.0625H5.50033C6.63699 13.0625 7.56283 13.9883 7.56283 15.125V16.9583C7.56283 17.7833 7.07699 18.5167 6.32533 18.8375C6.07783 18.9567 5.79366 19.0208 5.50033 19.0208ZM3.66699 14.4375C3.29116 14.4375 2.97949 14.7492 2.97949 15.125V16.9583C2.97949 17.3342 3.29116 17.6458 3.66699 17.6458H5.50033C5.59199 17.6458 5.67449 17.6275 5.76616 17.5817C6.03199 17.4717 6.18783 17.2242 6.18783 16.9583V15.125C6.18783 14.7492 5.87616 14.4375 5.50033 14.4375H3.66699Z" fill="#4F9CD1"/>
<path id="Vector_6" d="M18.3333 19.0208H16.5C16.2067 19.0208 15.9225 18.9567 15.6475 18.8284C14.9233 18.5259 14.4375 17.7833 14.4375 16.9583V15.125C14.4375 13.9883 15.3633 13.0625 16.5 13.0625H18.3333C19.47 13.0625 20.3958 13.9883 20.3958 15.125V16.9583C20.3958 18.095 19.47 19.0208 18.3333 19.0208ZM16.5 14.4375C16.1242 14.4375 15.8125 14.7492 15.8125 15.125V16.9583C15.8125 17.2242 15.9683 17.4717 16.2067 17.5725C16.3258 17.6275 16.4083 17.6458 16.5 17.6458H18.3333C18.7092 17.6458 19.0208 17.3342 19.0208 16.9583V15.125C19.0208 14.7492 18.7092 14.4375 18.3333 14.4375H16.5Z" fill="#4F9CD1"/>
<path id="Vector_7" d="M12.375 9.854H9.625C8.48833 9.854 7.5625 8.92817 7.5625 7.7915V5.0415C7.5625 3.90484 8.48833 2.979 9.625 2.979H12.375C13.5117 2.979 14.4375 3.90484 14.4375 5.0415V7.7915C14.4375 8.92817 13.5117 9.854 12.375 9.854ZM9.625 4.354C9.24917 4.354 8.9375 4.66567 8.9375 5.0415V7.7915C8.9375 8.16734 9.24917 8.479 9.625 8.479H12.375C12.7508 8.479 13.0625 8.16734 13.0625 7.7915V5.0415C13.0625 4.66567 12.7508 4.354 12.375 4.354H9.625Z" fill="#4F9CD1"/>
<path id="Vector_8" d="M17.3889 14.4375C17.3614 14.4375 17.3339 14.4375 17.3064 14.4375C16.9305 14.3917 16.6555 14.0526 16.7014 13.6767C16.7197 13.5484 16.7197 13.4292 16.7197 13.3009C16.7197 10.9175 15.4272 8.7175 13.4289 7.70917C13.0897 7.535 12.9522 7.12255 13.1264 6.78338C13.3005 6.44421 13.713 6.3067 14.0522 6.48086C16.5089 7.72753 18.0947 10.4042 18.0947 13.3009C18.0947 13.4842 18.0855 13.6583 18.058 13.8417C18.0305 14.1808 17.7372 14.4375 17.3889 14.4375Z" fill="#4F9CD1"/>
<path id="Vector_9" d="M4.61051 14.4374C4.26217 14.4374 3.96884 14.1807 3.93217 13.8324C3.91384 13.6491 3.89551 13.4749 3.89551 13.2916C3.89551 10.3949 5.48134 7.71825 7.93801 6.47159C8.27717 6.29742 8.68968 6.43493 8.86384 6.7741C9.03801 7.11327 8.90051 7.52578 8.56134 7.69994C6.56301 8.70828 5.27051 10.9083 5.27051 13.2916C5.27051 13.4199 5.27967 13.5391 5.28884 13.6675C5.33467 14.0433 5.05967 14.3824 4.68384 14.4282C4.66551 14.4374 4.63801 14.4374 4.61051 14.4374Z" fill="#4F9CD1"/>
</g>
</g>
</svg>
