<svg width="20" height="20" viewBox="0 0 20 20" fill="none" xmlns="http://www.w3.org/2000/svg">
<g id="vuesax/linear/briefcase">
<g id="briefcase">
<path id="Vector (Stroke)" fill-rule="evenodd" clip-rule="evenodd" d="M1.17596 5.24913C1.98758 4.28419 3.3791 3.8125 5.41688 3.8125H14.5835C16.6213 3.8125 18.0128 4.28419 18.8245 5.24913C19.6282 6.20469 19.7047 7.46006 19.5758 8.63061L18.888 15.9674C18.7871 16.9098 18.5505 17.943 17.709 18.7117C16.8738 19.4748 15.5798 19.8542 13.6669 19.8542H6.33355C4.4206 19.8542 3.12661 19.4748 2.2914 18.7117C1.44996 17.943 1.21343 16.9098 1.11246 15.9674L1.11149 15.9583L0.424574 8.63063C0.295756 7.46008 0.372205 6.2047 1.17596 5.24913ZM2.22822 6.13421C1.7958 6.6483 1.67409 7.42076 1.79187 8.48522L1.79314 8.49665L2.48011 15.8254C2.57182 16.6773 2.76168 17.279 3.21882 17.6966C3.68298 18.1206 4.56149 18.4792 6.33355 18.4792H13.6669C15.4389 18.4792 16.3174 18.1206 16.7816 17.6966C17.2387 17.279 17.4286 16.6773 17.5203 15.8254L18.2085 8.48521C18.3262 7.42075 18.2046 6.6483 17.7722 6.13421C17.3463 5.62789 16.4599 5.1875 14.5835 5.1875H5.41688C3.5405 5.1875 2.65409 5.62789 2.22822 6.13421Z" fill="#4F9CD1"/>
<path id="Vector (Stroke)_2" fill-rule="evenodd" clip-rule="evenodd" d="M7.06105 2.71252C7.0221 3.01079 7.021 3.34976 7.021 3.76634V4.49967C7.021 4.87937 6.71319 5.18717 6.3335 5.18717C5.9538 5.18717 5.646 4.87937 5.646 4.49967L5.646 3.74252C5.64598 3.35428 5.64595 2.93024 5.69762 2.53451C5.75115 2.12449 5.86586 1.68918 6.1346 1.30035C6.69994 0.482375 7.73555 0.145508 9.26683 0.145508H10.7335C12.2648 0.145508 13.3004 0.482375 13.8657 1.30035C14.1345 1.68918 14.2492 2.12449 14.3027 2.53451C14.3544 2.93024 14.3544 3.35429 14.3543 3.74252L14.3543 4.49967C14.3543 4.87937 14.0465 5.18717 13.6668 5.18717C13.2871 5.18717 12.9793 4.87937 12.9793 4.49967V3.76634C12.9793 3.34976 12.9782 3.01079 12.9393 2.71252C12.9011 2.42044 12.8325 2.22381 12.7346 2.08212C12.5666 1.83906 12.1355 1.52051 10.7335 1.52051H9.26683C7.86478 1.52051 7.43372 1.83906 7.26573 2.08212C7.1678 2.22381 7.09918 2.42044 7.06105 2.71252Z" fill="#4F9CD1"/>
<path id="Vector (Stroke)_3" fill-rule="evenodd" clip-rule="evenodd" d="M8.85523 10.6882C8.85452 10.7537 8.8545 10.8283 8.8545 10.9167V11.8608C8.8545 12.1189 8.85675 12.3087 8.87916 12.4698C8.90071 12.6246 8.93494 12.7 8.96394 12.7409C8.99629 12.7865 9.15752 12.9792 10.0003 12.9792C10.847 12.9792 11.0063 12.7847 11.0379 12.7395C11.0671 12.6978 11.1012 12.6213 11.1224 12.4646C11.1445 12.3017 11.1462 12.111 11.1462 11.8517V10.9167C11.1462 10.8283 11.1462 10.7537 11.1454 10.6882C11.08 10.6875 11.0054 10.6875 10.917 10.6875H9.08367C8.99526 10.6875 8.92067 10.6875 8.85523 10.6882ZM9.05356 9.3125C9.0636 9.31251 9.07364 9.31251 9.08367 9.31251H10.917C10.927 9.31251 10.9371 9.31251 10.9471 9.3125C11.1498 9.31246 11.3552 9.31241 11.5229 9.33104C11.6937 9.35002 11.9775 9.40078 12.2052 9.62846C12.4329 9.85613 12.4837 10.1399 12.5026 10.3108C12.5213 10.4784 12.5212 10.6839 12.5212 10.8866C12.5212 10.8966 12.5212 10.9066 12.5212 10.9167V11.862C12.5212 12.1 12.5212 12.3817 12.485 12.649C12.4475 12.9263 12.3653 13.241 12.1642 13.5283C11.7352 14.1407 10.9779 14.3542 10.0003 14.3542C9.02815 14.3542 8.27271 14.1435 7.84214 13.536C7.63969 13.2504 7.55589 12.9367 7.51729 12.6593C7.47954 12.3881 7.4795 12.1024 7.4795 11.8608V10.9167C7.4795 10.9066 7.4795 10.8966 7.4795 10.8866C7.47945 10.6839 7.4794 10.4784 7.49803 10.3108C7.51701 10.1399 7.56778 9.85613 7.79545 9.62846C8.02312 9.40078 8.30694 9.35002 8.4778 9.33104C8.64542 9.31241 8.85085 9.31246 9.05356 9.3125Z" fill="#4F9CD1"/>
<path id="Vector (Stroke)_4" fill-rule="evenodd" clip-rule="evenodd" d="M19.4021 8.67869C19.6254 8.98576 19.5575 9.41574 19.2504 9.63906C17.0356 11.2498 14.5052 12.2079 11.9195 12.5335C11.5427 12.5809 11.1989 12.314 11.1515 11.9373C11.104 11.5606 11.371 11.2167 11.7477 11.1693C14.1119 10.8716 16.4215 9.99628 18.4417 8.52705C18.7488 8.30372 19.1787 8.37161 19.4021 8.67869Z" fill="#4F9CD1"/>
<path id="Vector (Stroke)_5" fill-rule="evenodd" clip-rule="evenodd" d="M0.834584 8.94183C1.04904 8.6285 1.4769 8.54835 1.79023 8.76281C3.76005 10.111 5.98136 10.9236 8.24342 11.1769C8.62076 11.2192 8.8924 11.5593 8.85015 11.9366C8.8079 12.314 8.46776 12.5856 8.09042 12.5434C5.60415 12.265 3.16879 11.3726 1.01361 9.89748C0.700279 9.68302 0.620126 9.25516 0.834584 8.94183Z" fill="#4F9CD1"/>
</g>
</g>
</svg>
