<svg width="20" height="20" viewBox="0 0 20 20" fill="none" xmlns="http://www.w3.org/2000/svg">
<g id="vuesax/linear/category-2">
<g id="category-2">
<path id="Vector (Stroke)" fill-rule="evenodd" clip-rule="evenodd" d="M12.0349 1.03437C12.6676 0.401634 13.5609 0.145508 14.5835 0.145508H16.4168C17.4395 0.145508 18.3327 0.401634 18.9655 1.03437C19.5982 1.66711 19.8543 2.56037 19.8543 3.58301V5.41634C19.8543 6.43898 19.5982 7.33224 18.9655 7.96498C18.3327 8.59772 17.4395 8.85384 16.4168 8.85384H14.5835C13.5609 8.85384 12.6676 8.59772 12.0349 7.96498C11.4021 7.33224 11.146 6.43898 11.146 5.41634V3.58301C11.146 2.56037 11.4021 1.66711 12.0349 1.03437ZM13.0071 2.00664C12.7232 2.29057 12.521 2.77232 12.521 3.58301V5.41634C12.521 6.22703 12.7232 6.70878 13.0071 6.9927C13.2911 7.27663 13.7728 7.47884 14.5835 7.47884H16.4168C17.2275 7.47884 17.7093 7.27663 17.9932 6.9927C18.2771 6.70878 18.4793 6.22703 18.4793 5.41634V3.58301C18.4793 2.77232 18.2771 2.29057 17.9932 2.00664C17.7093 1.72272 17.2275 1.52051 16.4168 1.52051H14.5835C13.7728 1.52051 13.2911 1.72272 13.0071 2.00664Z" fill="#4F9CD1"/>
<path id="Vector (Stroke)_2" fill-rule="evenodd" clip-rule="evenodd" d="M1.03486 12.0344C1.6676 11.4016 2.56085 11.1455 3.5835 11.1455H5.41683C6.43947 11.1455 7.33273 11.4016 7.96547 12.0344C8.5982 12.6671 8.85433 13.5604 8.85433 14.583V16.4163C8.85433 17.439 8.5982 18.3322 7.96547 18.965C7.33273 19.5977 6.43947 19.8538 5.41683 19.8538H3.5835C2.56085 19.8538 1.6676 19.5977 1.03486 18.965C0.402122 18.3322 0.145996 17.439 0.145996 16.4163V14.583C0.145996 13.5604 0.402122 12.6671 1.03486 12.0344ZM2.00713 13.0066C1.7232 13.2906 1.521 13.7723 1.521 14.583V16.4163C1.521 17.227 1.7232 17.7088 2.00713 17.9927C2.29106 18.2766 2.7728 18.4788 3.5835 18.4788H5.41683C6.22752 18.4788 6.70926 18.2766 6.99319 17.9927C7.27712 17.7088 7.47933 17.227 7.47933 16.4163V14.583C7.47933 13.7723 7.27712 13.2906 6.99319 13.0066C6.70926 12.7227 6.22752 12.5205 5.41683 12.5205H3.5835C2.7728 12.5205 2.29106 12.7227 2.00713 13.0066Z" fill="#4F9CD1"/>
<path id="Vector (Stroke)_3" fill-rule="evenodd" clip-rule="evenodd" d="M4.50016 1.52051C2.85481 1.52051 1.521 2.85433 1.521 4.49967C1.521 6.14502 2.85481 7.47884 4.50016 7.47884C6.14551 7.47884 7.47933 6.14502 7.47933 4.49967C7.47933 2.85433 6.14551 1.52051 4.50016 1.52051ZM0.145996 4.49967C0.145996 2.09493 2.09542 0.145508 4.50016 0.145508C6.9049 0.145508 8.85433 2.09493 8.85433 4.49967C8.85433 6.90441 6.9049 8.85384 4.50016 8.85384C2.09542 8.85384 0.145996 6.90441 0.145996 4.49967Z" fill="#4F9CD1"/>
<path id="Vector (Stroke)_4" fill-rule="evenodd" clip-rule="evenodd" d="M15.5002 12.5205C13.8548 12.5205 12.521 13.8543 12.521 15.4997C12.521 17.145 13.8548 18.4788 15.5002 18.4788C17.1455 18.4788 18.4793 17.145 18.4793 15.4997C18.4793 13.8543 17.1455 12.5205 15.5002 12.5205ZM11.146 15.4997C11.146 13.0949 13.0954 11.1455 15.5002 11.1455C17.9049 11.1455 19.8543 13.0949 19.8543 15.4997C19.8543 17.9044 17.9049 19.8538 15.5002 19.8538C13.0954 19.8538 11.146 17.9044 11.146 15.4997Z" fill="#4F9CD1"/>
</g>
</g>
</svg>
