<svg width="20" height="20" viewBox="0 0 20 20" fill="none" xmlns="http://www.w3.org/2000/svg">
<g id="vuesax/linear/category-2">
<g id="category-2">
<path id="Vector (Stroke)" fill-rule="evenodd" clip-rule="evenodd" d="M12.0349 1.03468C12.6676 0.401939 13.5609 0.145813 14.5835 0.145813H16.4168C17.4395 0.145813 18.3327 0.401939 18.9655 1.03468C19.5982 1.66742 19.8543 2.56067 19.8543 3.58331V5.41665C19.8543 6.43929 19.5982 7.33254 18.9655 7.96528C18.3327 8.59802 17.4395 8.85415 16.4168 8.85415H14.5835C13.5609 8.85415 12.6676 8.59802 12.0349 7.96528C11.4021 7.33254 11.146 6.43929 11.146 5.41665V3.58331C11.146 2.56067 11.4021 1.66742 12.0349 1.03468ZM13.0071 2.00695C12.7232 2.29088 12.521 2.77262 12.521 3.58331V5.41665C12.521 6.22734 12.7232 6.70908 13.0071 6.99301C13.2911 7.27694 13.7728 7.47915 14.5835 7.47915H16.4168C17.2275 7.47915 17.7093 7.27694 17.9932 6.99301C18.2771 6.70908 18.4793 6.22734 18.4793 5.41665V3.58331C18.4793 2.77262 18.2771 2.29088 17.9932 2.00695C17.7093 1.72302 17.2275 1.52081 16.4168 1.52081H14.5835C13.7728 1.52081 13.2911 1.72302 13.0071 2.00695Z" fill="#1370E4"/>
<path id="Vector (Stroke)_2" fill-rule="evenodd" clip-rule="evenodd" d="M1.03486 12.0347C1.6676 11.4019 2.56085 11.1458 3.5835 11.1458H5.41683C6.43947 11.1458 7.33273 11.4019 7.96547 12.0347C8.5982 12.6674 8.85433 13.5607 8.85433 14.5833V16.4166C8.85433 17.4393 8.5982 18.3325 7.96547 18.9653C7.33273 19.598 6.43947 19.8541 5.41683 19.8541H3.5835C2.56085 19.8541 1.6676 19.598 1.03486 18.9653C0.402122 18.3325 0.145996 17.4393 0.145996 16.4166V14.5833C0.145996 13.5607 0.402122 12.6674 1.03486 12.0347ZM2.00713 13.0069C1.7232 13.2909 1.521 13.7726 1.521 14.5833V16.4166C1.521 17.2273 1.7232 17.7091 2.00713 17.993C2.29106 18.2769 2.7728 18.4791 3.5835 18.4791H5.41683C6.22752 18.4791 6.70926 18.2769 6.99319 17.993C7.27712 17.7091 7.47933 17.2273 7.47933 16.4166V14.5833C7.47933 13.7726 7.27712 13.2909 6.99319 13.0069C6.70926 12.723 6.22752 12.5208 5.41683 12.5208H3.5835C2.7728 12.5208 2.29106 12.723 2.00713 13.0069Z" fill="#1370E4"/>
<path id="Vector (Stroke)_3" fill-rule="evenodd" clip-rule="evenodd" d="M4.50016 1.52081C2.85481 1.52081 1.521 2.85463 1.521 4.49998C1.521 6.14533 2.85481 7.47915 4.50016 7.47915C6.14551 7.47915 7.47933 6.14533 7.47933 4.49998C7.47933 2.85463 6.14551 1.52081 4.50016 1.52081ZM0.145996 4.49998C0.145996 2.09524 2.09542 0.145813 4.50016 0.145813C6.9049 0.145813 8.85433 2.09524 8.85433 4.49998C8.85433 6.90472 6.9049 8.85415 4.50016 8.85415C2.09542 8.85415 0.145996 6.90472 0.145996 4.49998Z" fill="#1370E4"/>
<path id="Vector (Stroke)_4" fill-rule="evenodd" clip-rule="evenodd" d="M15.5002 12.5208C13.8548 12.5208 12.521 13.8546 12.521 15.5C12.521 17.1453 13.8548 18.4791 15.5002 18.4791C17.1455 18.4791 18.4793 17.1453 18.4793 15.5C18.4793 13.8546 17.1455 12.5208 15.5002 12.5208ZM11.146 15.5C11.146 13.0952 13.0954 11.1458 15.5002 11.1458C17.9049 11.1458 19.8543 13.0952 19.8543 15.5C19.8543 17.9047 17.9049 19.8541 15.5002 19.8541C13.0954 19.8541 11.146 17.9047 11.146 15.5Z" fill="#1370E4"/>
</g>
</g>
</svg>
