<svg width="24" height="25" viewBox="0 0 24 25" fill="none" xmlns="http://www.w3.org/2000/svg">
<g id="IONIcon/H/help/circle">
<path id="Vector" d="M12 3.42773C7.03125 3.42773 3 7.44709 3 12.4012C3 17.3553 7.03125 21.3746 12 21.3746C16.9687 21.3746 21 17.3553 21 12.4012C21 7.44709 16.9687 3.42773 12 3.42773ZM11.7187 17.6357C11.5333 17.6357 11.3521 17.5809 11.1979 17.4782C11.0437 17.3755 10.9236 17.2295 10.8526 17.0587C10.7817 16.8879 10.7631 16.6999 10.7993 16.5186C10.8354 16.3373 10.9247 16.1707 11.0558 16.04C11.1869 15.9093 11.354 15.8203 11.5359 15.7842C11.7177 15.7481 11.9062 15.7666 12.0775 15.8374C12.2488 15.9081 12.3952 16.0279 12.4983 16.1817C12.6013 16.3354 12.6562 16.5161 12.6562 16.701C12.6562 16.9489 12.5575 17.1866 12.3817 17.3619C12.2058 17.5372 11.9674 17.6357 11.7187 17.6357ZM13.2862 12.8686C12.5264 13.377 12.4219 13.843 12.4219 14.2707C12.4219 14.4442 12.3527 14.6106 12.2297 14.7333C12.1066 14.856 11.9397 14.925 11.7656 14.925C11.5916 14.925 11.4247 14.856 11.3016 14.7333C11.1785 14.6106 11.1094 14.4442 11.1094 14.2707C11.1094 13.2467 11.5819 12.4325 12.5541 11.7815C13.4578 11.1767 13.9687 10.7934 13.9687 9.95078C13.9687 9.37779 13.6406 8.94267 12.9614 8.62065C12.8016 8.54494 12.4458 8.47109 12.008 8.47623C11.4586 8.48325 11.032 8.61411 10.7034 8.8777C10.0837 9.37498 10.0312 9.91619 10.0312 9.92414C10.0271 10.0101 10.006 10.0943 9.96919 10.1721C9.93237 10.2499 9.88054 10.3197 9.81666 10.3776C9.75279 10.4354 9.67811 10.4801 9.5969 10.5092C9.51569 10.5382 9.42954 10.551 9.34336 10.5469C9.25718 10.5428 9.17266 10.5217 9.09463 10.485C9.0166 10.4483 8.94659 10.3966 8.88859 10.333C8.83059 10.2693 8.78574 10.1948 8.75659 10.1138C8.72745 10.0329 8.71459 9.94697 8.71875 9.86104C8.72391 9.74747 8.80312 8.72441 9.87984 7.86071C10.4381 7.41297 11.1483 7.18023 11.9892 7.16994C12.5845 7.16293 13.1437 7.26342 13.523 7.44195C14.6578 7.97709 15.2812 8.86929 15.2812 9.95078C15.2812 11.5319 14.2214 12.2418 13.2862 12.8686Z" fill="#4F9CD1"/>
</g>
</svg>
