<svg width="20" height="20" viewBox="0 0 20 20" fill="none" xmlns="http://www.w3.org/2000/svg">
<g id="vuesax/linear/cpu-setting">
<g id="cpu-setting">
<path id="Vector (Stroke)" fill-rule="evenodd" clip-rule="evenodd" d="M3.37252 3.37155C4.38954 2.35453 5.89918 1.97852 7.80033 1.97852H12.2003C14.1015 1.97852 15.6111 2.35453 16.6281 3.37155C17.6451 4.38856 18.0212 5.89821 18.0212 7.79935C18.0212 8.17904 17.7134 8.48685 17.3337 8.48685C16.954 8.48685 16.6462 8.17904 16.6462 7.79935C16.6462 6.03382 16.2888 4.97681 15.6559 4.34382C15.0229 3.71083 13.9658 3.35352 12.2003 3.35352H7.80033C6.0348 3.35352 4.97778 3.71083 4.34479 4.34382C3.71181 4.97681 3.35449 6.03382 3.35449 7.79935V12.1993C3.35449 13.9649 3.71181 15.0219 4.34479 15.6549C4.97778 16.2879 6.0348 16.6452 7.80033 16.6452C8.18002 16.6452 8.48783 16.953 8.48783 17.3327C8.48783 17.7124 8.18002 18.0202 7.80033 18.0202C5.89918 18.0202 4.38954 17.6442 3.37252 16.6272C2.35551 15.6101 1.97949 14.1005 1.97949 12.1993V7.79935C1.97949 5.89821 2.35551 4.38856 3.37252 3.37155Z" fill="#4F9CD1"/>
<path id="Vector (Stroke)_2" fill-rule="evenodd" clip-rule="evenodd" d="M5.67565 5.67467C6.38329 4.96703 7.41168 4.72852 8.62533 4.72852H11.3753C12.7138 4.72852 13.8277 5.01608 14.5284 5.90793C14.763 6.20649 14.7111 6.63869 14.4126 6.87328C14.114 7.10786 13.6818 7.056 13.4472 6.75743C13.1396 6.36595 12.5669 6.10352 11.3753 6.10352H8.62533C7.5473 6.10352 6.97153 6.32333 6.64792 6.64694C6.32431 6.97056 6.10449 7.54632 6.10449 8.62435V11.3743C6.10449 12.5661 6.36708 13.1416 6.75302 13.4492C7.04993 13.6859 7.09877 14.1185 6.8621 14.4154C6.62543 14.7123 6.19288 14.7611 5.89596 14.5245C5.0169 13.8238 4.72949 12.7126 4.72949 11.3743V8.62435C4.72949 7.41071 4.96801 6.38231 5.67565 5.67467Z" fill="#4F9CD1"/>
<path id="Vector (Stroke)_3" fill-rule="evenodd" clip-rule="evenodd" d="M6.34277 0.145508C6.72247 0.145508 7.03027 0.453312 7.03027 0.833008V2.66634C7.03027 3.04604 6.72247 3.35384 6.34277 3.35384C5.96308 3.35384 5.65527 3.04604 5.65527 2.66634V0.833008C5.65527 0.453312 5.96308 0.145508 6.34277 0.145508Z" fill="#4F9CD1"/>
<path id="Vector (Stroke)_4" fill-rule="evenodd" clip-rule="evenodd" d="M10 0.145508C10.3797 0.145508 10.6875 0.453312 10.6875 0.833008V2.66634C10.6875 3.04604 10.3797 3.35384 10 3.35384C9.6203 3.35384 9.3125 3.04604 9.3125 2.66634V0.833008C9.3125 0.453312 9.6203 0.145508 10 0.145508Z" fill="#4F9CD1"/>
<path id="Vector (Stroke)_5" fill-rule="evenodd" clip-rule="evenodd" d="M13.667 0.145508C14.0467 0.145508 14.3545 0.453312 14.3545 0.833008V2.66634C14.3545 3.04604 14.0467 3.35384 13.667 3.35384C13.2873 3.35384 12.9795 3.04604 12.9795 2.66634V0.833008C12.9795 0.453312 13.2873 0.145508 13.667 0.145508Z" fill="#4F9CD1"/>
<path id="Vector (Stroke)_6" fill-rule="evenodd" clip-rule="evenodd" d="M16.646 6.33301C16.646 5.95331 16.9538 5.64551 17.3335 5.64551H19.1668C19.5465 5.64551 19.8543 5.95331 19.8543 6.33301C19.8543 6.7127 19.5465 7.02051 19.1668 7.02051H17.3335C16.9538 7.02051 16.646 6.7127 16.646 6.33301Z" fill="#4F9CD1"/>
<path id="Vector (Stroke)_7" fill-rule="evenodd" clip-rule="evenodd" d="M6.34277 16.6455C6.72247 16.6455 7.03027 16.9533 7.03027 17.333V19.1663C7.03027 19.546 6.72247 19.8538 6.34277 19.8538C5.96308 19.8538 5.65527 19.546 5.65527 19.1663V17.333C5.65527 16.9533 5.96308 16.6455 6.34277 16.6455Z" fill="#4F9CD1"/>
<path id="Vector (Stroke)_8" fill-rule="evenodd" clip-rule="evenodd" d="M0.145996 6.33301C0.145996 5.95331 0.4538 5.64551 0.833496 5.64551H2.66683C3.04653 5.64551 3.35433 5.95331 3.35433 6.33301C3.35433 6.7127 3.04653 7.02051 2.66683 7.02051H0.833496C0.4538 7.02051 0.145996 6.7127 0.145996 6.33301Z" fill="#4F9CD1"/>
<path id="Vector (Stroke)_9" fill-rule="evenodd" clip-rule="evenodd" d="M0.145996 10C0.145996 9.6203 0.4538 9.3125 0.833496 9.3125H2.66683C3.04653 9.3125 3.35433 9.6203 3.35433 10C3.35433 10.3797 3.04653 10.6875 2.66683 10.6875H0.833496C0.4538 10.6875 0.145996 10.3797 0.145996 10Z" fill="#4F9CD1"/>
<path id="Vector (Stroke)_10" fill-rule="evenodd" clip-rule="evenodd" d="M0.145996 13.666C0.145996 13.2863 0.4538 12.9785 0.833496 12.9785H2.66683C3.04653 12.9785 3.35433 13.2863 3.35433 13.666C3.35433 14.0457 3.04653 14.3535 2.66683 14.3535H0.833496C0.4538 14.3535 0.145996 14.0457 0.145996 13.666Z" fill="#4F9CD1"/>
<path id="Vector (Stroke)_11" fill-rule="evenodd" clip-rule="evenodd" d="M14.3179 13.8135C13.8926 13.8135 13.5479 14.1582 13.5479 14.5835C13.5479 15.0087 13.8926 15.3535 14.3179 15.3535C14.7431 15.3535 15.0879 15.0087 15.0879 14.5835C15.0879 14.1582 14.7431 13.8135 14.3179 13.8135ZM12.1729 14.5835C12.1729 13.3988 13.1332 12.4385 14.3179 12.4385C15.5025 12.4385 16.4629 13.3988 16.4629 14.5835C16.4629 15.7681 15.5025 16.7285 14.3179 16.7285C13.1332 16.7285 12.1729 15.7681 12.1729 14.5835Z" fill="#4F9CD1"/>
<path id="Vector (Stroke)_12" fill-rule="evenodd" clip-rule="evenodd" d="M12.8654 10.7551C12.8211 10.6808 12.742 10.6751 12.6986 10.7009L12.693 10.7042L11.8499 11.1952C11.7447 11.2544 11.7041 11.3968 11.7675 11.5054L11.7688 11.5076C12.0622 12.0149 12.1749 12.6347 11.8658 13.172C11.5563 13.7099 10.9633 13.9235 10.3761 13.9235C10.2517 13.9235 10.147 14.0282 10.147 14.1526V15.0051C10.147 15.1458 10.2558 15.2364 10.3636 15.2344L10.3761 15.2342C10.9633 15.2342 11.5563 15.4478 11.8658 15.9857C12.1749 16.523 12.0622 17.1428 11.7688 17.6501L11.7675 17.6524C11.708 17.7544 11.7371 17.8965 11.8589 17.9678C11.8588 17.9677 11.859 17.9678 11.8589 17.9678L12.6895 18.4515C12.7491 18.4846 12.8285 18.4646 12.8654 18.4026L12.8666 18.4006L12.919 18.3133C13.2122 17.8092 13.6909 17.4045 14.3086 17.4045C14.9264 17.4045 15.4051 17.8092 15.6983 18.3133L15.7519 18.4026C15.7961 18.477 15.8753 18.4827 15.9187 18.4569L15.9243 18.4535L16.7674 17.9625C16.8726 17.9034 16.9131 17.761 16.8498 17.6524L16.8485 17.6501C16.5551 17.1428 16.4423 16.523 16.7515 15.9857C17.0609 15.4478 17.654 15.2343 18.2411 15.2343C18.3656 15.2343 18.4703 15.1296 18.4703 15.0051V14.1526C18.4703 14.0282 18.3656 13.9235 18.2411 13.9235C17.654 13.9235 17.0609 13.7099 16.7515 13.172C16.4423 12.6347 16.5551 12.0149 16.8485 11.5076L16.8498 11.5054C16.9093 11.4033 16.8802 11.2611 16.7582 11.1899C16.7582 11.1899 16.7583 11.1899 16.7582 11.1899L15.9278 10.7063C15.8681 10.6732 15.7888 10.6931 15.7519 10.7551L15.7507 10.7572L15.6983 10.8445C15.4051 11.3486 14.9264 11.7532 14.3086 11.7532C13.6909 11.7532 13.2122 11.3486 12.919 10.8445L12.8654 10.7551ZM14.0462 10.0507C13.6324 9.35686 12.7243 9.08787 11.9986 9.51744L11.1706 9.99964C10.4002 10.4367 10.1311 11.4273 10.579 12.1968C10.6788 12.3697 10.677 12.4581 10.6724 12.4854C10.6509 12.5031 10.5754 12.5485 10.3761 12.5485C9.49228 12.5485 8.77197 13.2688 8.77197 14.1526V15.0051C8.77197 15.8886 9.48401 16.6213 10.3809 16.6093C10.5766 16.61 10.6511 16.6548 10.6724 16.6724C10.677 16.6997 10.6788 16.7881 10.579 16.9609C10.1263 17.7386 10.4089 18.7138 11.1664 19.1556L12.001 19.6417L12.0059 19.6445C12.7157 20.0501 13.6247 19.8137 14.0462 19.1071C14.0464 19.1067 14.0467 19.1063 14.0469 19.1059L14.1007 19.0163L14.1063 19.0068C14.2055 18.8353 14.2822 18.7917 14.3086 18.7815C14.3351 18.7917 14.4118 18.8353 14.511 19.0068L14.5704 19.1059C14.5706 19.1063 14.5708 19.1067 14.5711 19.1071C14.9849 19.8009 15.893 20.0699 16.6187 19.6403L17.4466 19.1581C18.2171 18.7211 18.4862 17.7305 18.0383 16.961C17.9385 16.7881 17.9403 16.6997 17.9449 16.6724C17.9663 16.6547 18.0419 16.6093 18.2411 16.6093C19.125 16.6093 19.8453 15.889 19.8453 15.0051V14.1526C19.8453 13.2688 19.125 12.5485 18.2411 12.5485C18.0419 12.5485 17.9663 12.5031 17.9449 12.4854C17.9403 12.4581 17.9385 12.3697 18.0383 12.1968C18.4909 11.4191 18.2083 10.444 17.4509 10.0021L16.6163 9.51604L16.6114 9.51321C15.9016 9.10762 14.9925 9.34402 14.5711 10.0507C14.5708 10.0511 14.5706 10.0514 14.5704 10.0518L14.5166 10.1414L14.511 10.1509C14.4118 10.3225 14.3351 10.366 14.3086 10.3762C14.2822 10.366 14.2055 10.3225 14.1063 10.1509L14.0469 10.0518C14.0467 10.0514 14.0464 10.051 14.0462 10.0507Z" fill="#4F9CD1"/>
</g>
</g>
</svg>
