<svg width="20" height="20" viewBox="0 0 20 20" fill="none" xmlns="http://www.w3.org/2000/svg">
<g id="vuesax/linear/cpu-setting">
<g id="cpu-setting">
<path id="Vector (Stroke)" fill-rule="evenodd" clip-rule="evenodd" d="M3.37252 3.37216C4.38954 2.35514 5.89918 1.97913 7.80033 1.97913H12.2003C14.1015 1.97913 15.6111 2.35514 16.6281 3.37216C17.6451 4.38917 18.0212 5.89882 18.0212 7.79996C18.0212 8.17966 17.7134 8.48746 17.3337 8.48746C16.954 8.48746 16.6462 8.17966 16.6462 7.79996C16.6462 6.03443 16.2888 4.97742 15.6559 4.34443C15.0229 3.71144 13.9658 3.35413 12.2003 3.35413H7.80033C6.0348 3.35413 4.97778 3.71144 4.34479 4.34443C3.71181 4.97742 3.35449 6.03443 3.35449 7.79996V12.2C3.35449 13.9655 3.71181 15.0225 4.34479 15.6555C4.97778 16.2885 6.0348 16.6458 7.80033 16.6458C8.18002 16.6458 8.48783 16.9536 8.48783 17.3333C8.48783 17.713 8.18002 18.0208 7.80033 18.0208C5.89918 18.0208 4.38954 17.6448 3.37252 16.6278C2.35551 15.6107 1.97949 14.1011 1.97949 12.2V7.79996C1.97949 5.89882 2.35551 4.38917 3.37252 3.37216Z" fill="#1370E4"/>
<path id="Vector (Stroke)_2" fill-rule="evenodd" clip-rule="evenodd" d="M5.67565 5.67528C6.38329 4.96764 7.41168 4.72913 8.62533 4.72913H11.3753C12.7138 4.72913 13.8277 5.01669 14.5284 5.90854C14.763 6.2071 14.7111 6.6393 14.4126 6.87389C14.114 7.10847 13.6818 7.05661 13.4472 6.75804C13.1396 6.36656 12.5669 6.10413 11.3753 6.10413H8.62533C7.5473 6.10413 6.97153 6.32394 6.64792 6.64755C6.32431 6.97117 6.10449 7.54693 6.10449 8.62496V11.375C6.10449 12.5667 6.36708 13.1422 6.75302 13.4499C7.04993 13.6865 7.09877 14.1191 6.8621 14.416C6.62543 14.7129 6.19288 14.7617 5.89596 14.5251C5.0169 13.8244 4.72949 12.7132 4.72949 11.375V8.62496C4.72949 7.41132 4.96801 6.38292 5.67565 5.67528Z" fill="#1370E4"/>
<path id="Vector (Stroke)_3" fill-rule="evenodd" clip-rule="evenodd" d="M6.34277 0.145813C6.72247 0.145813 7.03027 0.453617 7.03027 0.833313V2.66665C7.03027 3.04634 6.72247 3.35415 6.34277 3.35415C5.96308 3.35415 5.65527 3.04634 5.65527 2.66665V0.833313C5.65527 0.453617 5.96308 0.145813 6.34277 0.145813Z" fill="#1370E4"/>
<path id="Vector (Stroke)_4" fill-rule="evenodd" clip-rule="evenodd" d="M10 0.145813C10.3797 0.145813 10.6875 0.453617 10.6875 0.833313V2.66665C10.6875 3.04634 10.3797 3.35415 10 3.35415C9.6203 3.35415 9.3125 3.04634 9.3125 2.66665V0.833313C9.3125 0.453617 9.6203 0.145813 10 0.145813Z" fill="#1370E4"/>
<path id="Vector (Stroke)_5" fill-rule="evenodd" clip-rule="evenodd" d="M13.667 0.145813C14.0467 0.145813 14.3545 0.453617 14.3545 0.833313V2.66665C14.3545 3.04634 14.0467 3.35415 13.667 3.35415C13.2873 3.35415 12.9795 3.04634 12.9795 2.66665V0.833313C12.9795 0.453617 13.2873 0.145813 13.667 0.145813Z" fill="#1370E4"/>
<path id="Vector (Stroke)_6" fill-rule="evenodd" clip-rule="evenodd" d="M16.646 6.33331C16.646 5.95362 16.9538 5.64581 17.3335 5.64581H19.1668C19.5465 5.64581 19.8543 5.95362 19.8543 6.33331C19.8543 6.71301 19.5465 7.02081 19.1668 7.02081H17.3335C16.9538 7.02081 16.646 6.71301 16.646 6.33331Z" fill="#1370E4"/>
<path id="Vector (Stroke)_7" fill-rule="evenodd" clip-rule="evenodd" d="M6.34277 16.6458C6.72247 16.6458 7.03027 16.9536 7.03027 17.3333V19.1666C7.03027 19.5463 6.72247 19.8541 6.34277 19.8541C5.96308 19.8541 5.65527 19.5463 5.65527 19.1666V17.3333C5.65527 16.9536 5.96308 16.6458 6.34277 16.6458Z" fill="#1370E4"/>
<path id="Vector (Stroke)_8" fill-rule="evenodd" clip-rule="evenodd" d="M0.145996 6.33331C0.145996 5.95362 0.4538 5.64581 0.833496 5.64581H2.66683C3.04653 5.64581 3.35433 5.95362 3.35433 6.33331C3.35433 6.71301 3.04653 7.02081 2.66683 7.02081H0.833496C0.4538 7.02081 0.145996 6.71301 0.145996 6.33331Z" fill="#1370E4"/>
<path id="Vector (Stroke)_9" fill-rule="evenodd" clip-rule="evenodd" d="M0.145996 10C0.145996 9.6203 0.4538 9.3125 0.833496 9.3125H2.66683C3.04653 9.3125 3.35433 9.6203 3.35433 10C3.35433 10.3797 3.04653 10.6875 2.66683 10.6875H0.833496C0.4538 10.6875 0.145996 10.3797 0.145996 10Z" fill="#1370E4"/>
<path id="Vector (Stroke)_10" fill-rule="evenodd" clip-rule="evenodd" d="M0.145996 13.6666C0.145996 13.2869 0.4538 12.9791 0.833496 12.9791H2.66683C3.04653 12.9791 3.35433 13.2869 3.35433 13.6666C3.35433 14.0463 3.04653 14.3541 2.66683 14.3541H0.833496C0.4538 14.3541 0.145996 14.0463 0.145996 13.6666Z" fill="#1370E4"/>
<path id="Vector (Stroke)_11" fill-rule="evenodd" clip-rule="evenodd" d="M14.3179 13.8133C13.8926 13.8133 13.5479 14.158 13.5479 14.5833C13.5479 15.0086 13.8926 15.3533 14.3179 15.3533C14.7431 15.3533 15.0879 15.0086 15.0879 14.5833C15.0879 14.158 14.7431 13.8133 14.3179 13.8133ZM12.1729 14.5833C12.1729 13.3986 13.1332 12.4383 14.3179 12.4383C15.5025 12.4383 16.4629 13.3986 16.4629 14.5833C16.4629 15.7679 15.5025 16.7283 14.3179 16.7283C13.1332 16.7283 12.1729 15.7679 12.1729 14.5833Z" fill="#1370E4"/>
<path id="Vector (Stroke)_12" fill-rule="evenodd" clip-rule="evenodd" d="M12.8654 10.755C12.8211 10.6807 12.742 10.675 12.6986 10.7008L12.693 10.7041L11.8499 11.1951C11.7447 11.2543 11.7041 11.3967 11.7675 11.5053L11.7688 11.5075C12.0622 12.0148 12.1749 12.6346 11.8658 13.1719C11.5563 13.7098 10.9633 13.9233 10.3761 13.9233C10.2517 13.9233 10.147 14.028 10.147 14.1525V15.005C10.147 15.1457 10.2558 15.2362 10.3636 15.2343L10.3761 15.2341C10.9633 15.2341 11.5563 15.4477 11.8658 15.9856C12.1749 16.5229 12.0622 17.1427 11.7688 17.65L11.7675 17.6522C11.708 17.7542 11.7371 17.8964 11.8589 17.9676C11.8588 17.9676 11.859 17.9677 11.8589 17.9676L12.6895 18.4514C12.7491 18.4845 12.8285 18.4645 12.8654 18.4025L12.8666 18.4005L12.919 18.3131C13.2122 17.8091 13.6909 17.4044 14.3086 17.4044C14.9264 17.4044 15.4051 17.8091 15.6983 18.3132L15.7519 18.4025C15.7961 18.4768 15.8753 18.4825 15.9187 18.4567L15.9243 18.4534L16.7674 17.9624C16.8726 17.9032 16.9131 17.7608 16.8498 17.6522L16.8485 17.65C16.5551 17.1427 16.4423 16.5229 16.7515 15.9856C17.0609 15.4477 17.654 15.2342 18.2411 15.2342C18.3656 15.2342 18.4703 15.1295 18.4703 15.005V14.1525C18.4703 14.028 18.3656 13.9233 18.2411 13.9233C17.654 13.9233 17.0609 13.7098 16.7515 13.1719C16.4423 12.6346 16.5551 12.0148 16.8485 11.5075L16.8498 11.5053C16.9093 11.4032 16.8802 11.261 16.7582 11.1898C16.7582 11.1897 16.7583 11.1898 16.7582 11.1898L15.9278 10.7061C15.8681 10.673 15.7888 10.693 15.7519 10.755L15.7507 10.7571L15.6983 10.8444C15.4051 11.3484 14.9264 11.7531 14.3086 11.7531C13.6909 11.7531 13.2122 11.3484 12.919 10.8444L12.8654 10.755ZM14.0462 10.0505C13.6324 9.35674 12.7243 9.08775 11.9986 9.51732L11.1706 9.99951C10.4002 10.4366 10.1311 11.4272 10.579 12.1967C10.6788 12.3696 10.677 12.4579 10.6724 12.4852C10.6509 12.5029 10.5754 12.5483 10.3761 12.5483C9.49228 12.5483 8.77197 13.2686 8.77197 14.1525V15.005C8.77197 15.8884 9.48401 16.6212 10.3809 16.6092C10.5766 16.6099 10.6511 16.6547 10.6724 16.6723C10.677 16.6996 10.6788 16.7879 10.579 16.9608C10.1263 17.7385 10.4089 18.7136 11.1664 19.1555L12.001 19.6416L12.0059 19.6444C12.7157 20.05 13.6247 19.8136 14.0462 19.107C14.0464 19.1066 14.0467 19.1062 14.0469 19.1058L14.1007 19.0162L14.1063 19.0067C14.2055 18.8351 14.2822 18.7916 14.3086 18.7814C14.3351 18.7916 14.4118 18.8351 14.511 19.0067L14.5704 19.1058C14.5706 19.1062 14.5708 19.1066 14.5711 19.107C14.9849 19.8008 15.893 20.0697 16.6187 19.6402L17.4466 19.158C18.2171 18.7209 18.4862 17.7303 18.0383 16.9608C17.9385 16.788 17.9403 16.6996 17.9449 16.6723C17.9663 16.6546 18.0419 16.6092 18.2411 16.6092C19.125 16.6092 19.8453 15.8889 19.8453 15.005V14.1525C19.8453 13.2686 19.125 12.5483 18.2411 12.5483C18.0419 12.5483 17.9663 12.5029 17.9449 12.4852C17.9403 12.4579 17.9385 12.3695 18.0383 12.1966C18.4909 11.419 18.2083 10.4438 17.4509 10.002L16.6163 9.51592L16.6114 9.51309C15.9016 9.10749 14.9925 9.34389 14.5711 10.0505C14.5708 10.0509 14.5706 10.0513 14.5704 10.0517L14.5166 10.1413L14.511 10.1508C14.4118 10.3224 14.3351 10.3659 14.3086 10.3761C14.2822 10.3659 14.2055 10.3224 14.1063 10.1508L14.0469 10.0517C14.0467 10.0513 14.0464 10.0509 14.0462 10.0505Z" fill="#1370E4"/>
</g>
</g>
</svg>
