<svg width="20" height="20" viewBox="0 0 20 20" fill="none" xmlns="http://www.w3.org/2000/svg">
<g id="ep:arrow-left">
<path id="Vector" d="M11.903 2.9171L5.42549 9.56211C5.31172 9.67882 5.24805 9.83536 5.24805 9.99835C5.24805 10.1613 5.31172 10.3179 5.42549 10.4346L11.903 17.0821C11.956 17.1365 12.0193 17.1798 12.0893 17.2093C12.1593 17.2389 12.2345 17.2541 12.3105 17.2541C12.3865 17.2541 12.4617 17.2389 12.5316 17.2093C12.6016 17.1798 12.665 17.1365 12.718 17.0821C12.827 16.9705 12.8881 16.8206 12.8881 16.6646C12.8881 16.5086 12.827 16.3587 12.718 16.2471L6.62674 9.99835L12.718 3.75085C12.8266 3.63929 12.8874 3.48971 12.8874 3.33398C12.8874 3.17825 12.8266 3.02867 12.718 2.9171C12.665 2.86268 12.6016 2.81941 12.5316 2.78988C12.4617 2.76034 12.3865 2.74512 12.3105 2.74512C12.2345 2.74512 12.1593 2.76034 12.0893 2.78988C12.0193 2.81941 11.956 2.86268 11.903 2.9171Z" fill="#4F9CD1"/>
</g>
</svg>
