<svg width="218" height="169" viewBox="0 0 218 169" fill="none" xmlns="http://www.w3.org/2000/svg">
<g clip-path="url(#clip0_220_15480)">
<path d="M203 0H15C6.71573 0 0 6.71573 0 15V154C0 162.284 6.71573 169 15 169H203C211.284 169 218 162.284 218 154V15C218 6.71573 211.284 0 203 0Z" fill="#4F9CD1"/>
<mask id="mask0_220_15480" style="mask-type:alpha" maskUnits="userSpaceOnUse" x="0" y="0" width="218" height="169">
<path d="M203 0H15C6.71573 0 0 6.71573 0 15V154C0 162.284 6.71573 169 15 169H203C211.284 169 218 162.284 218 154V15C218 6.71573 211.284 0 203 0Z" fill="#4FD1C5"/>
</mask>
<g mask="url(#mask0_220_15480)">
<g opacity="0.2">
<path d="M397.5 168.751C397.5 266.353 318.144 345.477 220.25 345.477C122.356 345.477 43 266.353 43 168.751C43 71.1496 122.356 -7.97461 220.25 -7.97461C318.144 -7.97461 397.5 71.1496 397.5 168.751Z" stroke="white"/>
<path d="M373.468 168.751C373.468 253.12 304.871 321.517 220.25 321.517C135.628 321.517 67.0312 253.12 67.0312 168.751C67.0312 84.383 135.628 15.9863 220.25 15.9863C304.871 15.9863 373.468 84.383 373.468 168.751Z" stroke="white"/>
<path d="M346.122 168.751C346.122 238.061 289.768 294.25 220.249 294.25C150.731 294.25 94.377 238.061 94.377 168.751C94.377 99.4405 150.731 43.251 220.249 43.251C289.768 43.251 346.122 99.4405 346.122 168.751Z" stroke="white"/>
<path d="M318.776 168.751C318.776 223.003 274.666 266.985 220.25 266.985C165.834 266.985 121.724 223.003 121.724 168.751C121.724 114.499 165.834 70.5166 220.25 70.5166C274.666 70.5166 318.776 114.499 318.776 168.751Z" stroke="white"/>
<path d="M292.259 168.751C292.259 208.401 260.021 240.546 220.25 240.546C180.479 240.546 148.241 208.401 148.241 168.751C148.241 129.101 180.479 96.9561 220.25 96.9561C260.021 96.9561 292.259 129.101 292.259 168.751Z" stroke="white"/>
<path d="M268.228 168.751C268.228 195.168 246.749 216.586 220.251 216.586C193.752 216.586 172.273 195.168 172.273 168.751C172.273 142.335 193.752 120.917 220.251 120.917C246.749 120.917 268.228 142.335 268.228 168.751Z" stroke="white"/>
<path d="M249 168.751C249 184.58 236.13 197.414 220.25 197.414C204.37 197.414 191.5 184.58 191.5 168.751C191.5 152.921 204.37 140.087 220.25 140.087C236.13 140.087 249 152.921 249 168.751Z" stroke="white"/>
</g>
</g>
</g>
<defs>
<clipPath id="clip0_220_15480">
<rect width="218" height="169" fill="white"/>
</clipPath>
</defs>
</svg>
