<svg width="24" height="24" viewBox="0 0 24 24" fill="none" xmlns="http://www.w3.org/2000/svg">
<g id="menu">
<g id="vuesax/outline/menu">
<g id="menu_2">
<path id="Vector" d="M21.2308 8H2.76923C2.34872 8 2 7.54667 2 7C2 6.45333 2.34872 6 2.76923 6H21.2308C21.6513 6 22 6.45333 22 7C22 7.54667 21.6513 8 21.2308 8Z" fill="#4F9CD1"/>
<path id="Vector_2" d="M21.4615 13H8.53846C8.2441 13 8 12.5467 8 12C8 11.4533 8.2441 11 8.53846 11H21.4615C21.7559 11 22 11.4533 22 12C22 12.5467 21.7559 13 21.4615 13Z" fill="#4F9CD1"/>
<path id="Vector_3" d="M21.6538 18H13.3462C13.1569 18 13 17.5467 13 17C13 16.4533 13.1569 16 13.3462 16H21.6538C21.8431 16 22 16.4533 22 17C22 17.5467 21.8431 18 21.6538 18Z" fill="#4F9CD1"/>
</g>
</g>
</g>
</svg>
