<svg width="20" height="20" viewBox="0 0 20 20" fill="none" xmlns="http://www.w3.org/2000/svg">
<g id="vuesax/linear/setting-2">
<g id="setting-2">
<path id="Vector (Stroke)" fill-rule="evenodd" clip-rule="evenodd" d="M10 7.9375C8.86091 7.9375 7.9375 8.86091 7.9375 10C7.9375 11.1391 8.86091 12.0625 10 12.0625C11.1391 12.0625 12.0625 11.1391 12.0625 10C12.0625 8.86091 11.1391 7.9375 10 7.9375ZM6.5625 10C6.5625 8.10152 8.10152 6.5625 10 6.5625C11.8985 6.5625 13.4375 8.10152 13.4375 10C13.4375 11.8985 11.8985 13.4375 10 13.4375C8.10152 13.4375 6.5625 11.8985 6.5625 10Z" fill="#1370E4"/>
<path id="Vector (Stroke)_2" fill-rule="evenodd" clip-rule="evenodd" d="M7.80335 2.45599C7.55798 2.0472 7.04125 1.92004 6.65751 2.14834L6.64751 2.15429L5.06163 3.0617C4.55987 3.34842 4.38677 3.99848 4.67378 4.49523L4.0785 4.83917L4.6733 4.49441C5.16378 5.34061 5.29564 6.26808 4.8575 7.02837C4.41943 7.78856 3.55122 8.13917 2.57516 8.13917C1.99471 8.13917 1.521 8.61734 1.521 9.19333V10.8067C1.521 11.3827 1.99471 11.8608 2.57516 11.8608C3.55122 11.8608 4.41943 12.2114 4.8575 12.9716C5.29558 13.7318 5.16381 14.6591 4.6735 15.5053C4.38688 16.0019 4.55967 16.6515 5.06126 16.9381L6.65756 17.8516C7.04129 18.0799 7.55796 17.9528 7.80333 17.544L7.90185 17.3739C8.39215 16.528 9.1312 15.9515 10.0082 15.9515C10.8858 15.9515 11.6226 16.5284 12.1085 17.3753C12.1087 17.3757 12.1089 17.376 12.1091 17.3764L12.2061 17.544C12.4515 17.9528 12.9682 18.08 13.352 17.8517L13.362 17.8457L14.9479 16.9383C15.4483 16.6523 15.624 16.0113 15.335 15.5035C14.8455 14.6578 14.7142 13.7313 15.152 12.9716C15.5901 12.2114 16.4583 11.8608 17.4343 11.8608C18.0148 11.8608 18.4885 11.3827 18.4885 10.8067V9.19333C18.4885 8.61288 18.0103 8.13917 17.4343 8.13917C16.4583 8.13917 15.5901 7.78856 15.152 7.02837C14.7139 6.26823 14.8457 5.34097 15.3359 4.4949C15.6226 3.99819 15.4499 3.34857 14.9482 3.06192L13.3519 2.14843C12.9682 1.92013 12.4515 2.0472 12.2061 2.45599L12.1076 2.62613C11.6173 3.47204 10.8783 4.04854 10.0013 4.04854C9.12374 4.04854 8.38702 3.47172 7.90119 2.62499C7.90092 2.62452 7.90065 2.62405 7.90038 2.62358L7.80335 2.45599ZM5.95994 0.963421C7.02275 0.335171 8.37085 0.720607 8.98684 1.75599L8.99102 1.76301L9.09181 1.9372L9.09328 1.93975C9.43245 2.53142 9.78624 2.67354 10.0013 2.67354C10.2174 2.67354 10.5739 2.53021 10.9177 1.9372C10.9176 1.9373 10.9177 1.9371 10.9177 1.9372L11.0226 1.75596C11.6386 0.720578 12.9868 0.335168 14.0496 0.96343L15.6304 1.86808C16.797 2.5347 17.1926 4.02986 16.5263 5.18311L16.5258 5.18393C16.1821 5.77689 16.2361 6.15567 16.3433 6.34184C16.4507 6.52811 16.7512 6.76417 17.4343 6.76417C18.765 6.76417 19.8635 7.84879 19.8635 9.19333V10.8067C19.8635 12.1373 18.7789 13.2358 17.4343 13.2358C16.7512 13.2358 16.4507 13.4719 16.3433 13.6582C16.2361 13.8443 16.1821 14.2231 16.5258 14.8161L16.5279 14.8197C17.1909 15.9799 16.7979 17.4645 15.6308 18.1317C15.6307 18.1318 15.6309 18.1316 15.6308 18.1317L14.0495 19.0366C12.9867 19.6648 11.6386 19.2794 11.0227 18.244L11.0185 18.237L10.9177 18.0628L10.9162 18.0602C10.577 17.4686 10.2233 17.3265 10.0082 17.3265C9.79208 17.3265 9.43562 17.4698 9.09181 18.0628C9.09175 18.0629 9.09187 18.0627 9.09181 18.0628L8.98688 18.244C8.37091 19.2794 7.02282 19.6648 5.96002 19.0366L4.37907 18.1319C4.37894 18.1318 4.37919 18.132 4.37907 18.1319C3.21278 17.4652 2.81696 15.97 3.48321 14.8169L3.48369 14.8161C3.82738 14.2231 3.77344 13.8443 3.66616 13.6582C3.55882 13.4719 3.25827 13.2358 2.57516 13.2358C1.23062 13.2358 0.145996 12.1373 0.145996 10.8067V9.19333C0.145996 7.86266 1.23062 6.76417 2.57516 6.76417C3.25827 6.76417 3.55882 6.52811 3.66616 6.34184C3.77344 6.15567 3.82738 5.77689 3.48369 5.18393L3.48321 5.18311C2.81696 4.02998 3.21241 2.53501 4.3787 1.8683L5.95994 0.963421Z" fill="#1370E4"/>
</g>
</g>
</svg>
