<svg width="18" height="18" viewBox="0 0 18 18" fill="none" xmlns="http://www.w3.org/2000/svg">
<g id="vuesax/linear/task">
<g id="task">
<path id="Vector (Stroke)" fill-rule="evenodd" clip-rule="evenodd" d="M7.396 15.875C7.396 15.4953 7.7038 15.1875 8.0835 15.1875H17.2502C17.6299 15.1875 17.9377 15.4953 17.9377 15.875C17.9377 16.2547 17.6299 16.5625 17.2502 16.5625H8.0835C7.7038 16.5625 7.396 16.2547 7.396 15.875Z" fill="#4F9CD1"/>
<path id="Vector (Stroke)_2" fill-rule="evenodd" clip-rule="evenodd" d="M7.396 9.45801C7.396 9.07831 7.7038 8.77051 8.0835 8.77051H17.2502C17.6299 8.77051 17.9377 9.07831 17.9377 9.45801C17.9377 9.8377 17.6299 10.1455 17.2502 10.1455H8.0835C7.7038 10.1455 7.396 9.8377 7.396 9.45801Z" fill="#4F9CD1"/>
<path id="Vector (Stroke)_3" fill-rule="evenodd" clip-rule="evenodd" d="M7.396 3.04102C7.396 2.66132 7.7038 2.35352 8.0835 2.35352H17.2502C17.6299 2.35352 17.9377 2.66132 17.9377 3.04102C17.9377 3.42071 17.6299 3.72852 17.2502 3.72852H8.0835C7.7038 3.72852 7.396 3.42071 7.396 3.04102Z" fill="#4F9CD1"/>
<path id="Vector (Stroke)_4" fill-rule="evenodd" clip-rule="evenodd" d="M4.9028 0.721872C5.17129 0.990357 5.17129 1.42566 4.9028 1.69414L2.1528 4.44414C1.88432 4.71263 1.44902 4.71263 1.18053 4.44414L0.263864 3.52748C-0.00462136 3.25899 -0.00462136 2.82369 0.263864 2.55521C0.532349 2.28672 0.96765 2.28672 1.23614 2.55521L1.66667 2.98574L3.93053 0.721872C4.19902 0.453386 4.63432 0.453386 4.9028 0.721872Z" fill="#4F9CD1"/>
<path id="Vector (Stroke)_5" fill-rule="evenodd" clip-rule="evenodd" d="M4.9028 7.13886C5.17129 7.40735 5.17129 7.84265 4.9028 8.11114L2.1528 10.8611C1.88432 11.1296 1.44902 11.1296 1.18053 10.8611L0.263864 9.94447C-0.00462136 9.67598 -0.00462136 9.24068 0.263864 8.9722C0.532349 8.70371 0.96765 8.70371 1.23614 8.9722L1.66667 9.40273L3.93053 7.13886C4.19902 6.87038 4.63432 6.87038 4.9028 7.13886Z" fill="#4F9CD1"/>
<path id="Vector (Stroke)_6" fill-rule="evenodd" clip-rule="evenodd" d="M4.9028 13.5549C5.17129 13.8234 5.17129 14.2587 4.9028 14.5272L2.1528 17.2772C1.88432 17.5456 1.44902 17.5456 1.18053 17.2772L0.263864 16.3605C-0.00462136 16.092 -0.00462136 15.6567 0.263864 15.3882C0.532349 15.1197 0.96765 15.1197 1.23614 15.3882L1.66667 15.8187L3.93053 13.5549C4.19902 13.2864 4.63432 13.2864 4.9028 13.5549Z" fill="#4F9CD1"/>
</g>
</g>
</svg>
