<svg width="18" height="18" viewBox="0 0 18 18" fill="none" xmlns="http://www.w3.org/2000/svg">
<g id="vuesax/linear/task">
<g id="task">
<path id="Vector (Stroke)" fill-rule="evenodd" clip-rule="evenodd" d="M7.396 15.875C7.396 15.4953 7.7038 15.1875 8.0835 15.1875H17.2502C17.6299 15.1875 17.9377 15.4953 17.9377 15.875C17.9377 16.2547 17.6299 16.5625 17.2502 16.5625H8.0835C7.7038 16.5625 7.396 16.2547 7.396 15.875Z" fill="#1370E4"/>
<path id="Vector (Stroke)_2" fill-rule="evenodd" clip-rule="evenodd" d="M7.396 9.45831C7.396 9.07862 7.7038 8.77081 8.0835 8.77081H17.2502C17.6299 8.77081 17.9377 9.07862 17.9377 9.45831C17.9377 9.83801 17.6299 10.1458 17.2502 10.1458H8.0835C7.7038 10.1458 7.396 9.83801 7.396 9.45831Z" fill="#1370E4"/>
<path id="Vector (Stroke)_3" fill-rule="evenodd" clip-rule="evenodd" d="M7.396 3.04163C7.396 2.66193 7.7038 2.35413 8.0835 2.35413H17.2502C17.6299 2.35413 17.9377 2.66193 17.9377 3.04163C17.9377 3.42132 17.6299 3.72913 17.2502 3.72913H8.0835C7.7038 3.72913 7.396 3.42132 7.396 3.04163Z" fill="#1370E4"/>
<path id="Vector (Stroke)_4" fill-rule="evenodd" clip-rule="evenodd" d="M4.9028 0.722177C5.17129 0.990663 5.17129 1.42596 4.9028 1.69445L2.1528 4.44445C1.88432 4.71293 1.44902 4.71293 1.18053 4.44445L0.263864 3.52778C-0.00462136 3.2593 -0.00462136 2.824 0.263864 2.55551C0.532349 2.28702 0.96765 2.28702 1.23614 2.55551L1.66667 2.98604L3.93053 0.722177C4.19902 0.453692 4.63432 0.453692 4.9028 0.722177Z" fill="#1370E4"/>
<path id="Vector (Stroke)_5" fill-rule="evenodd" clip-rule="evenodd" d="M4.9028 7.13886C5.17129 7.40735 5.17129 7.84265 4.9028 8.11114L2.1528 10.8611C1.88432 11.1296 1.44902 11.1296 1.18053 10.8611L0.263864 9.94447C-0.00462136 9.67598 -0.00462136 9.24068 0.263864 8.9722C0.532349 8.70371 0.96765 8.70371 1.23614 8.9722L1.66667 9.40273L3.93053 7.13886C4.19902 6.87038 4.63432 6.87038 4.9028 7.13886Z" fill="#1370E4"/>
<path id="Vector (Stroke)_6" fill-rule="evenodd" clip-rule="evenodd" d="M4.9028 13.5555C5.17129 13.824 5.17129 14.2593 4.9028 14.5278L2.1528 17.2778C1.88432 17.5462 1.44902 17.5462 1.18053 17.2778L0.263864 16.3611C-0.00462136 16.0926 -0.00462136 15.6573 0.263864 15.3888C0.532349 15.1203 0.96765 15.1203 1.23614 15.3888L1.66667 15.8194L3.93053 13.5555C4.19902 13.287 4.63432 13.287 4.9028 13.5555Z" fill="#1370E4"/>
</g>
</g>
</svg>
