<svg width="12" height="12" viewBox="0 0 12 12" fill="none" xmlns="http://www.w3.org/2000/svg">
<g id="et:attachments" clip-path="url(#clip0_1518_35867)">
<g id="Group">
<path id="Vector" d="M7.11979 6.17663C7.37649 6.204 7.63606 6.17336 7.87933 6.08697C8.1226 6.00058 8.34335 5.86065 8.52529 5.6775L11.3022 2.90063C11.6254 2.58 11.8083 2.14427 11.8107 1.689C11.8132 1.46486 11.7709 1.24248 11.6861 1.03497C11.6013 0.827458 11.4759 0.639015 11.3172 0.480751C11.1605 0.3234 10.9742 0.19872 10.7689 0.113941C10.5637 0.0291627 10.3437 -0.0140274 10.1217 -0.0131239H10.1093C9.65417 -0.0105419 9.21862 0.172308 8.89804 0.495376L6.12117 3.27225C5.91953 3.47275 5.77057 3.71999 5.68755 3.99195C5.60453 4.26392 5.59001 4.55219 5.64529 4.83113C5.65856 4.88036 5.69005 4.92271 5.73338 4.94959C5.7767 4.97648 5.82863 4.98589 5.87864 4.97593C5.92864 4.96597 5.97299 4.93737 6.00271 4.89593C6.03242 4.85449 6.04528 4.80331 6.03867 4.75275C5.99619 4.53852 6.00739 4.31711 6.07125 4.10826C6.13511 3.8994 6.24965 3.7096 6.40467 3.55575L9.18154 0.778876C9.42773 0.530353 9.76248 0.389683 10.1123 0.387751C10.4779 0.387751 10.7892 0.519001 11.034 0.763876C11.2789 1.00875 11.4128 1.3365 11.4105 1.68563C11.4083 2.03546 11.2676 2.37016 11.019 2.61638L8.24217 5.39325C8.10222 5.5337 7.93264 5.64107 7.74584 5.70751C7.55904 5.77395 7.35974 5.79778 7.16254 5.77725C7.10975 5.77199 7.05701 5.78773 7.01574 5.82107C6.97447 5.8544 6.94799 5.90266 6.94204 5.95538C6.93913 5.98158 6.94142 6.00811 6.94878 6.03343C6.95615 6.05875 6.96844 6.08237 6.98495 6.10293C7.00147 6.12348 7.02188 6.14058 7.04502 6.15322C7.06816 6.16587 7.09357 6.17382 7.11979 6.17663ZM5.67754 8.72738C5.8882 8.51936 6.04138 8.26031 6.12215 7.97548C6.20292 7.69066 6.20852 7.38976 6.13842 7.10213C6.13244 7.07639 6.12139 7.0521 6.10592 7.03069C6.09045 7.00927 6.07086 6.99116 6.04831 6.9774C6.02575 6.96364 6.00068 6.95452 5.97455 6.95057C5.94843 6.94661 5.92178 6.94791 5.89617 6.95438C5.87057 6.96054 5.84644 6.97168 5.82516 6.98718C5.80388 7.00267 5.78586 7.02221 5.77214 7.04468C5.75842 7.06714 5.74926 7.09209 5.74519 7.1181C5.74112 7.14411 5.74221 7.17067 5.74842 7.19625C5.80211 7.4172 5.79766 7.64828 5.73549 7.867C5.67332 8.08571 5.55555 8.28459 5.39367 8.44425L2.61679 11.2211C2.3706 11.4696 2.03585 11.6103 1.68604 11.6123C1.51495 11.6152 1.34504 11.5833 1.18661 11.5187C1.02817 11.454 0.8845 11.3579 0.764291 11.2361C0.643204 11.1154 0.547536 10.9716 0.482934 10.8133C0.418333 10.655 0.38611 10.4854 0.388166 10.3144C0.390286 9.96449 0.530919 9.62969 0.779291 9.38325L3.55617 6.60638C3.69684 6.46404 3.86807 6.35559 4.05688 6.28926C4.24569 6.22292 4.44713 6.20043 4.64592 6.2235C4.69857 6.22843 4.75108 6.21279 4.79246 6.17987C4.83384 6.14694 4.86088 6.09929 4.86792 6.04688C4.87382 5.99404 4.85856 5.94101 4.82545 5.8994C4.79235 5.85779 4.74411 5.83099 4.69129 5.82488C4.43259 5.79516 4.17053 5.82451 3.92481 5.9107C3.67909 5.99689 3.45611 6.13769 3.27267 6.3225L0.495791 9.09938C0.172701 9.42009 -0.0101441 9.85576 -0.012709 10.311C-0.0152554 10.5351 0.0270981 10.7575 0.111855 10.965C0.196611 11.1725 0.322055 11.361 0.480791 11.5193C0.799541 11.838 1.22329 12.0131 1.67629 12.0131H1.68867C2.14379 12.0105 2.57934 11.8277 2.89992 11.5046L5.67754 8.72738Z" fill="#797979"/>
<path id="Vector_2" d="M8.52532 3.327C8.50672 3.30836 8.48463 3.29357 8.4603 3.28348C8.43598 3.27339 8.4099 3.2682 8.38357 3.2682C8.35724 3.2682 8.33116 3.27339 8.30684 3.28348C8.28252 3.29357 8.26042 3.30836 8.24182 3.327L3.17932 8.3895C3.16071 8.40811 3.14594 8.43021 3.13587 8.45454C3.12579 8.47886 3.12061 8.50492 3.12061 8.53125C3.12061 8.55758 3.12579 8.58364 3.13587 8.60796C3.14594 8.63229 3.16071 8.65439 3.17932 8.673C3.19793 8.69162 3.22003 8.70638 3.24436 8.71646C3.26868 8.72653 3.29474 8.73172 3.32107 8.73172C3.3474 8.73172 3.37346 8.72653 3.39778 8.71646C3.42211 8.70638 3.44421 8.69162 3.46282 8.673L8.52532 3.6105C8.54396 3.5919 8.55875 3.5698 8.56884 3.54548C8.57893 3.52116 8.58412 3.49508 8.58412 3.46875C8.58412 3.44242 8.57893 3.41634 8.56884 3.39202C8.55875 3.36769 8.54396 3.3456 8.52532 3.327Z" fill="#797979"/>
</g>
</g>
<defs>
<clipPath id="clip0_1518_35867">
<rect width="12" height="12" fill="white"/>
</clipPath>
</defs>
</svg>
