<svg width="32" height="32" viewBox="0 0 32 32" fill="none" xmlns="http://www.w3.org/2000/svg">
<g id="lucide:clipboard-list">
<g id="Group">
<path id="Vector" d="M20 2.66666H12C11.2636 2.66666 10.6667 3.26361 10.6667 3.99999V6.66666C10.6667 7.40304 11.2636 7.99999 12 7.99999H20C20.7364 7.99999 21.3334 7.40304 21.3334 6.66666V3.99999C21.3334 3.26361 20.7364 2.66666 20 2.66666Z" stroke="white" stroke-width="2" stroke-linecap="round" stroke-linejoin="round"/>
<path id="Vector_2" d="M21.3333 5.33331H24C24.7073 5.33331 25.3855 5.61426 25.8856 6.11436C26.3857 6.61446 26.6667 7.29274 26.6667 7.99998V26.6666C26.6667 27.3739 26.3857 28.0522 25.8856 28.5523C25.3855 29.0524 24.7073 29.3333 24 29.3333H8.00001C7.29277 29.3333 6.61449 29.0524 6.11439 28.5523C5.61429 28.0522 5.33334 27.3739 5.33334 26.6666V7.99998C5.33334 7.29274 5.61429 6.61446 6.11439 6.11436C6.61449 5.61426 7.29277 5.33331 8.00001 5.33331H10.6667M16 14.6666H21.3333M16 21.3333H21.3333M10.6667 14.6666H10.68M10.6667 21.3333H10.68" stroke="white" stroke-width="2" stroke-linecap="round" stroke-linejoin="round"/>
</g>
</g>
</svg>
