<svg width="32" height="32" viewBox="0 0 32 32" fill="none" xmlns="http://www.w3.org/2000/svg">
<g id="solar:star-outline">
<path id="Vector" fill-rule="evenodd" clip-rule="evenodd" d="M15.078 4.68019C14.5649 5.34959 13.9867 6.38364 13.1455 7.89173L12.7197 8.6562L12.6428 8.79424C12.2521 9.4975 11.9201 10.094 11.3875 10.4977C10.8496 10.9066 10.1933 11.0538 9.4302 11.2257L9.28175 11.2596L8.45352 11.4471C6.81922 11.8169 5.7058 12.0709 4.9453 12.3717C4.20172 12.6635 4.04545 12.9044 3.98555 13.0958C3.92174 13.299 3.92044 13.6103 4.3632 14.3161C4.81507 15.0324 5.57688 15.9258 6.68899 17.2281L7.25416 17.8884L7.35183 18.0017C7.87663 18.6138 8.31418 19.1243 8.51473 19.7703C8.71397 20.4123 8.64756 21.0856 8.56682 21.9035L8.5538 22.0558L8.46785 22.9375C8.29856 24.6722 8.18656 25.8678 8.22433 26.7273C8.2634 27.5868 8.44441 27.8239 8.58896 27.9333C8.71658 28.0309 8.95358 28.1377 9.72581 27.9163C10.5111 27.6923 11.5555 27.2144 13.0856 26.5098L13.8617 26.153L14.0037 26.0879C14.7134 25.7584 15.328 25.4745 16 25.4745C16.6719 25.4745 17.2866 25.7584 17.9963 26.0866C18.0436 26.1093 18.0914 26.131 18.1396 26.1517L18.9144 26.5098C20.4445 27.2144 21.4889 27.6923 22.2742 27.9163C23.0464 28.1377 23.2834 28.0309 23.411 27.9333C23.5556 27.8239 23.7366 27.5855 23.7756 26.7273C23.8147 25.8678 23.7001 24.6722 23.5321 22.9375L23.4462 22.0558L23.4332 21.9035C23.3524 21.0856 23.286 20.4123 23.4852 19.7703C23.6858 19.1243 24.1233 18.6138 24.6481 18.0017L24.7458 17.8884L25.311 17.2281C26.4231 15.9258 27.1849 15.0324 27.6355 14.3161C28.0795 13.6103 28.0782 13.3003 28.0144 13.0958C27.9545 12.9044 27.7983 12.6635 27.0547 12.3717C26.2929 12.0709 25.1808 11.8169 23.5465 11.4471L22.7182 11.2596C22.6674 11.2465 22.618 11.2361 22.5698 11.2257C21.8067 11.0538 21.1503 10.9066 20.6125 10.4977C20.0786 10.094 19.7491 9.4988 19.3572 8.79424L19.2816 8.6562L18.8545 7.89173C18.0132 6.38364 17.4351 5.34959 16.922 4.68019C16.4102 4.01079 16.1484 3.95349 16 3.95349C15.8515 3.95349 15.5898 4.01079 15.078 4.68019ZM13.5283 3.49247C14.1469 2.68242 14.9139 2 16 2C17.0861 2 17.8518 2.68242 18.4729 3.49247C19.0824 4.28949 19.7296 5.44987 20.5201 6.8681L20.9876 7.7055C21.498 8.62234 21.6296 8.81769 21.7936 8.94271C21.9499 9.06122 22.1544 9.12894 23.148 9.35425L24.0595 9.56001C25.591 9.90643 26.8528 10.1916 27.7709 10.5537C28.7241 10.9301 29.5589 11.4836 29.8805 12.5163C30.1983 13.5386 29.8415 14.4789 29.2893 15.3554C28.7528 16.2084 27.8959 17.2112 26.8489 18.4354L26.2304 19.1582C25.5571 19.9448 25.4165 20.1375 25.3501 20.3498C25.2836 20.5673 25.2888 20.8186 25.3917 21.867L25.4842 22.8281C25.6431 24.4639 25.772 25.7974 25.7264 26.8133C25.6808 27.8486 25.4464 28.841 24.5935 29.4895C23.7236 30.1485 22.7117 30.0756 21.735 29.7943C20.7883 29.5234 19.6085 28.9803 18.176 28.32L17.3218 27.9267C16.3868 27.497 16.1875 27.428 16 27.428C15.8125 27.428 15.6132 27.497 14.6782 27.9267L13.8253 28.32C12.3915 28.9803 11.2117 29.5234 10.2649 29.7943C9.28826 30.0743 8.27642 30.1485 7.40783 29.4895C6.55356 28.841 6.31916 27.8486 6.27358 26.8146C6.228 25.7987 6.35692 24.4639 6.51579 22.8294L6.60956 21.867C6.71113 20.8173 6.71634 20.5673 6.64862 20.3498C6.58351 20.1375 6.44287 19.9461 5.76961 19.1582L5.15105 18.4354C4.10535 17.2112 3.24848 16.2084 2.71196 15.3567C2.15851 14.4789 1.8017 13.5386 2.11944 12.5163C2.44109 11.4836 3.27583 10.9301 4.22907 10.5537C5.14714 10.1916 6.40901 9.90643 7.94044 9.56001L8.02248 9.54178L8.85071 9.35425C9.84562 9.12894 10.0488 9.06122 10.2063 8.94141C10.3704 8.81769 10.5019 8.62234 11.0137 7.7055L11.4799 6.8681C12.2704 5.44856 12.9176 4.28949 13.527 3.49247H13.5283Z" fill="white"/>
</g>
</svg>
