<svg width="32" height="32" viewBox="0 0 32 32" fill="none" xmlns="http://www.w3.org/2000/svg">
<g id="system-uicons:document">
<g id="Group">
<path id="Vector" d="M9.90474 16H17.5238M9.90474 19.0476H20.5714M9.90474 22.0952H14.4762M25.1428 23.6191V12.9524L17.5238 5.33334H9.90474C9.09646 5.33334 8.32128 5.65443 7.74974 6.22597C7.1782 6.79751 6.85712 7.57268 6.85712 8.38096V23.6191C6.85712 24.4273 7.1782 25.2025 7.74974 25.774C8.32128 26.3456 9.09646 26.6667 9.90474 26.6667H22.0952C22.9035 26.6667 23.6787 26.3456 24.2502 25.774C24.8217 25.2025 25.1428 24.4273 25.1428 23.6191Z" stroke="white" stroke-width="2" stroke-linecap="round" stroke-linejoin="round"/>
<path id="Vector_2" d="M17.5238 5.33334V9.90477C17.5238 10.7131 17.8449 11.4882 18.4164 12.0598C18.988 12.6313 19.7631 12.9524 20.5714 12.9524H25.1429" stroke="white" stroke-width="2" stroke-linecap="round" stroke-linejoin="round"/>
</g>
</g>
</svg>
