<svg width="24" height="24" viewBox="0 0 24 24" fill="none" xmlns="http://www.w3.org/2000/svg">
<g id="vuesax/outline/logout">
<g id="logout">
<path id="Vector" d="M8.76 22.27H8.89C13.33 22.27 15.47 20.52 15.84 16.6C15.88 16.19 15.58 15.82 15.16 15.78C14.76 15.74 14.38 16.05 14.34 16.46C14.05 19.6 12.57 20.77 8.88 20.77H8.75C4.68 20.77 3.24 19.33 3.24 15.26V8.73998C3.24 4.66998 4.68 3.22998 8.75 3.22998H8.88C12.59 3.22998 14.07 4.41998 14.34 7.61998C14.39 8.02998 14.74 8.33998 15.16 8.29998C15.58 8.26998 15.88 7.89998 15.85 7.48998C15.51 3.50998 13.36 1.72998 8.89 1.72998H8.76C3.85 1.72998 1.75 3.82998 1.75 8.73998V15.26C1.75 20.17 3.85 22.27 8.76 22.27Z" fill="#1370E4"/>
<path id="Vector_2" d="M9 12.75H20.38C20.79 12.75 21.13 12.41 21.13 12C21.13 11.59 20.79 11.25 20.38 11.25H9C8.59 11.25 8.25 11.59 8.25 12C8.25 12.41 8.59 12.75 9 12.75Z" fill="#1370E4"/>
<path id="Vector_3" d="M18.15 16.1C18.34 16.1 18.53 16.03 18.68 15.88L22.03 12.53C22.32 12.24 22.32 11.76 22.03 11.47L18.68 8.12003C18.39 7.83003 17.91 7.83003 17.62 8.12003C17.33 8.41003 17.33 8.89003 17.62 9.18003L20.44 12L17.62 14.82C17.33 15.11 17.33 15.59 17.62 15.88C17.76 16.03 17.96 16.1 18.15 16.1Z" fill="#1370E4"/>
</g>
</g>
</svg>
