<svg width="20" height="20" viewBox="0 0 20 20" fill="none" xmlns="http://www.w3.org/2000/svg">
<g id="vuesax/outline/briefcase">
<g id="briefcase">
<path id="Vector" d="M13.3332 18.9588H6.66653C2.81653 18.9588 2.09986 17.1671 1.91653 15.4255L1.29153 8.75046C1.19986 7.87546 1.17486 6.58379 2.04153 5.61712C2.79153 4.78379 4.0332 4.38379 5.8332 4.38379H14.1665C15.9749 4.38379 17.2165 4.79212 17.9582 5.61712C18.8249 6.58379 18.7999 7.87546 18.7082 8.75879L18.0832 15.4171C17.8999 17.1671 17.1832 18.9588 13.3332 18.9588ZM5.8332 5.62546C4.42486 5.62546 3.4582 5.90046 2.96653 6.45046C2.5582 6.90046 2.42486 7.59212 2.5332 8.62546L3.1582 15.3005C3.29986 16.6171 3.6582 17.7088 6.66653 17.7088H13.3332C16.3332 17.7088 16.6999 16.6171 16.8415 15.2921L17.4665 8.63379C17.5749 7.59212 17.4415 6.90046 17.0332 6.45046C16.5415 5.90046 15.5749 5.62546 14.1665 5.62546H5.8332Z" fill="white"/>
<path id="Vector_2" d="M13.3332 5.62533C12.9915 5.62533 12.7082 5.34199 12.7082 5.00033V4.33366C12.7082 2.85033 12.7082 2.29199 10.6665 2.29199H9.33317C7.2915 2.29199 7.2915 2.85033 7.2915 4.33366V5.00033C7.2915 5.34199 7.00817 5.62533 6.6665 5.62533C6.32484 5.62533 6.0415 5.34199 6.0415 5.00033V4.33366C6.0415 2.86699 6.0415 1.04199 9.33317 1.04199H10.6665C13.9582 1.04199 13.9582 2.86699 13.9582 4.33366V5.00033C13.9582 5.34199 13.6748 5.62533 13.3332 5.62533Z" fill="white"/>
<path id="Vector_3" d="M10.0002 13.9583C7.7085 13.9583 7.7085 12.5417 7.7085 11.6917V10.8333C7.7085 9.65833 7.99183 9.375 9.16683 9.375H10.8335C12.0085 9.375 12.2918 9.65833 12.2918 10.8333V11.6667C12.2918 12.5333 12.2918 13.9583 10.0002 13.9583ZM8.9585 10.625C8.9585 10.6917 8.9585 10.7667 8.9585 10.8333V11.6917C8.9585 12.55 8.9585 12.7083 10.0002 12.7083C11.0418 12.7083 11.0418 12.575 11.0418 11.6833V10.8333C11.0418 10.7667 11.0418 10.6917 11.0418 10.625C10.9752 10.625 10.9002 10.625 10.8335 10.625H9.16683C9.10016 10.625 9.02516 10.625 8.9585 10.625Z" fill="white"/>
<path id="Vector_4" d="M11.6667 12.3079C11.3584 12.3079 11.0834 12.0745 11.0501 11.7579C11.0084 11.4162 11.2501 11.0995 11.5917 11.0579C13.7917 10.7829 15.9001 9.94955 17.6751 8.65788C17.9501 8.44955 18.3417 8.51622 18.5501 8.79955C18.7501 9.07455 18.6917 9.46622 18.4084 9.67455C16.4584 11.0912 14.1584 11.9995 11.7417 12.3079C11.7167 12.3079 11.6917 12.3079 11.6667 12.3079Z" fill="white"/>
<path id="Vector_5" d="M8.33345 12.3164C8.30845 12.3164 8.28345 12.3164 8.25845 12.3164C5.97511 12.0581 3.75011 11.2248 1.82511 9.90809C1.54178 9.71642 1.46678 9.32476 1.65845 9.04142C1.85011 8.75809 2.24178 8.68309 2.52511 8.87476C4.28345 10.0748 6.30845 10.8331 8.39178 11.0748C8.73345 11.1164 8.98345 11.4248 8.94178 11.7664C8.91678 12.0831 8.65011 12.3164 8.33345 12.3164Z" fill="white"/>
</g>
</g>
</svg>
