<svg width="100" height="100" viewBox="0 0 100 100" fill="none" xmlns="http://www.w3.org/2000/svg">
<g id="Frame 1171275978 1" clip-path="url(#clip0_598_15114)">
<path id="Vector" d="M50 100C77.6142 100 100 77.6142 100 50C100 22.3858 77.6142 0 50 0C22.3858 0 0 22.3858 0 50C0 77.6142 22.3858 100 50 100Z" fill="#F1F1F1"/>
<path id="Vector_2" d="M31.3335 26H66.0002C68.1219 26 70.1567 26.8429 71.657 28.3431C73.1573 29.8434 74.0002 31.8783 74.0002 34V68.6667C74.0002 70.7884 73.1573 72.8232 71.657 74.3235C70.1567 75.8238 68.1219 76.6667 66.0002 76.6667H31.3335C29.2118 76.6667 27.1769 75.8238 25.6766 74.3235C24.1764 72.8232 23.3335 70.7884 23.3335 68.6667V34C23.3335 31.8783 24.1764 29.8434 25.6766 28.3431C27.1769 26.8429 29.2118 26 31.3335 26ZM31.3335 28.6667C29.919 28.6667 28.5625 29.2286 27.5623 30.2288C26.5621 31.229 26.0002 32.5855 26.0002 34V64.9067L37.4402 53.44L44.1068 60.1067L57.4402 46.7733L71.3335 60.6667V34C71.3335 32.5855 70.7716 31.229 69.7714 30.2288C68.7712 29.2286 67.4146 28.6667 66.0002 28.6667H31.3335ZM44.1068 63.8933L37.4402 57.2267L26.0002 68.6667C26.0002 70.0812 26.5621 71.4377 27.5623 72.4379C28.5625 73.4381 29.919 74 31.3335 74H66.0002C67.4146 74 68.7712 73.4381 69.7714 72.4379C70.7716 71.4377 71.3335 70.0812 71.3335 68.6667V64.4267L57.4402 50.56L44.1068 63.8933ZM38.0002 34C39.7683 34 41.464 34.7024 42.7142 35.9526C43.9644 37.2029 44.6668 38.8986 44.6668 40.6667C44.6668 42.4348 43.9644 44.1305 42.7142 45.3807C41.464 46.631 39.7683 47.3333 38.0002 47.3333C36.2321 47.3333 34.5364 46.631 33.2861 45.3807C32.0359 44.1305 31.3335 42.4348 31.3335 40.6667C31.3335 38.8986 32.0359 37.2029 33.2861 35.9526C34.5364 34.7024 36.2321 34 38.0002 34ZM38.0002 36.6667C36.9393 36.6667 35.9219 37.0881 35.1717 37.8382C34.4216 38.5884 34.0002 39.6058 34.0002 40.6667C34.0002 41.7275 34.4216 42.7449 35.1717 43.4951C35.9219 44.2452 36.9393 44.6667 38.0002 44.6667C39.061 44.6667 40.0784 44.2452 40.8286 43.4951C41.5787 42.7449 42.0002 41.7275 42.0002 40.6667C42.0002 39.6058 41.5787 38.5884 40.8286 37.8382C40.0784 37.0881 39.061 36.6667 38.0002 36.6667Z" fill="white"/>
<path id="Vector_3" d="M44.1066 63.8929L37.44 57.2263L26 68.6663C26 70.0808 26.5619 71.4373 27.5621 72.4375C28.5623 73.4377 29.9188 73.9996 31.3333 73.9996H66C67.4144 73.9996 68.771 73.4377 69.7712 72.4375C70.7714 71.4373 71.3333 70.0808 71.3333 68.6663V64.4263L57.44 50.5596L44.1066 63.8929Z" fill="white"/>
</g>
<defs>
<clipPath id="clip0_598_15114">
<rect width="100" height="100" fill="white"/>
</clipPath>
</defs>
</svg>
