<svg width="64" height="64" viewBox="0 0 64 64" fill="none" xmlns="http://www.w3.org/2000/svg">
<g id="mdi-light:image">
<g id="Vector">
<path d="M13.3333 8H47.9999C50.1216 8 52.1565 8.84285 53.6568 10.3431C55.1571 11.8434 55.9999 13.8783 55.9999 16V50.6667C55.9999 52.7884 55.1571 54.8232 53.6568 56.3235C52.1565 57.8238 50.1216 58.6667 47.9999 58.6667H13.3333C11.2115 58.6667 9.17669 57.8238 7.6764 56.3235C6.17611 54.8232 5.33325 52.7884 5.33325 50.6667V16C5.33325 13.8783 6.17611 11.8434 7.6764 10.3431C9.17669 8.84285 11.2115 8 13.3333 8ZM13.3333 10.6667C11.9188 10.6667 10.5622 11.2286 9.56202 12.2288C8.56182 13.229 7.99992 14.5855 7.99992 16V46.9067L19.4399 35.44L26.1066 42.1067L39.4399 28.7733L53.3332 42.6667V16C53.3332 14.5855 52.7713 13.229 51.7712 12.2288C50.771 11.2286 49.4144 10.6667 47.9999 10.6667H13.3333ZM26.1066 45.8933L19.4399 39.2267L7.99992 50.6667C7.99992 52.0812 8.56182 53.4377 9.56202 54.4379C10.5622 55.4381 11.9188 56 13.3333 56H47.9999C49.4144 56 50.771 55.4381 51.7712 54.4379C52.7713 53.4377 53.3332 52.0812 53.3332 50.6667V46.4267L39.4399 32.56L26.1066 45.8933ZM19.9999 16C21.768 16 23.4637 16.7024 24.714 17.9526C25.9642 19.2029 26.6666 20.8986 26.6666 22.6667C26.6666 24.4348 25.9642 26.1305 24.714 27.3807C23.4637 28.631 21.768 29.3333 19.9999 29.3333C18.2318 29.3333 16.5361 28.631 15.2859 27.3807C14.0356 26.1305 13.3333 24.4348 13.3333 22.6667C13.3333 20.8986 14.0356 19.2029 15.2859 17.9526C16.5361 16.7024 18.2318 16 19.9999 16ZM19.9999 18.6667C18.9391 18.6667 17.9216 19.0881 17.1715 19.8382C16.4213 20.5884 15.9999 21.6058 15.9999 22.6667C15.9999 23.7275 16.4213 24.7449 17.1715 25.4951C17.9216 26.2452 18.9391 26.6667 19.9999 26.6667C21.0608 26.6667 22.0782 26.2452 22.8283 25.4951C23.5785 24.7449 23.9999 23.7275 23.9999 22.6667C23.9999 21.6058 23.5785 20.5884 22.8283 19.8382C22.0782 19.0881 21.0608 18.6667 19.9999 18.6667Z" fill="white"/>
<path d="M26.1066 45.8933L19.4399 39.2267L7.99992 50.6667C7.99992 52.0812 8.56182 53.4377 9.56202 54.4379C10.5622 55.4381 11.9188 56 13.3333 56H47.9999C49.4144 56 50.771 55.4381 51.7712 54.4379C52.7713 53.4377 53.3332 52.0812 53.3332 50.6667V46.4267L39.4399 32.56L26.1066 45.8933Z" fill="white"/>
</g>
</g>
</svg>
