<svg width="24" height="24" viewBox="0 0 24 24" fill="none" xmlns="http://www.w3.org/2000/svg">
<g id="file/pdf">
<path id="Vector" d="M13 2H6C5.46957 2 4.96086 2.21071 4.58579 2.58579C4.21071 2.96086 4 3.46957 4 4V20C4 20.5304 4.21071 21.0391 4.58579 21.4142C4.96086 21.7893 5.46957 22 6 22H18C18.5304 22 19.0391 21.7893 19.4142 21.4142C19.7893 21.0391 20 20.5304 20 20V9L13 2Z" fill="url(#paint0_linear_281_16161)"/>
<path id="Vector_2" d="M13 2V5C13 7.20914 14.7909 9 17 9H20" fill="url(#paint1_linear_281_16161)"/>
<g id="PDF">
<path d="M6.30334 16.4453H7.70734C8.03957 16.4453 8.29812 16.5291 8.48301 16.6966C8.6679 16.8642 8.76034 17.0982 8.76034 17.3986C8.76034 17.6991 8.6679 17.9331 8.48301 18.1006C8.29812 18.2682 8.03957 18.352 7.70734 18.352H6.97934V19.5003H6.30334V16.4453ZM7.62068 17.8406C7.95868 17.8406 8.12768 17.6948 8.12768 17.403C8.12768 17.2528 8.08579 17.1415 8.00201 17.0693C7.91823 16.9971 7.79112 16.961 7.62068 16.961H6.97934V17.8406H7.62068Z" fill="white"/>
<path d="M9.19788 16.4453H10.3852C10.7174 16.4453 11.0034 16.506 11.2432 16.6273C11.483 16.7486 11.6664 16.9234 11.7935 17.1516C11.9207 17.3799 11.9842 17.6529 11.9842 17.9706C11.9842 18.2884 11.9207 18.5629 11.7935 18.794C11.6693 19.0222 11.4873 19.197 11.2475 19.3183C11.0078 19.4396 10.7203 19.5003 10.3852 19.5003H9.19788V16.4453ZM10.3375 18.9543C10.9875 18.9543 11.3125 18.6264 11.3125 17.9706C11.3125 17.3178 10.9875 16.9913 10.3375 16.9913H9.87388V18.9543H10.3375Z" fill="white"/>
<path d="M12.5029 19.5003V16.4453H14.5656V16.9783H13.1702V17.6803H14.4789V18.2133H13.1702V19.5003H12.5029Z" fill="white"/>
</g>
</g>
<defs>
<linearGradient id="paint0_linear_281_16161" x1="12" y1="2" x2="4" y2="21.5" gradientUnits="userSpaceOnUse">
<stop stop-color="#F03D3D"/>
<stop offset="1" stop-color="#F78A8A"/>
</linearGradient>
<linearGradient id="paint1_linear_281_16161" x1="16.5" y1="2" x2="16.5" y2="9" gradientUnits="userSpaceOnUse">
<stop stop-color="#F03D3D"/>
<stop offset="1" stop-color="#F78A8A"/>
</linearGradient>
</defs>
</svg>
