<svg width="18" height="19" viewBox="0 0 18 19" fill="none" xmlns="http://www.w3.org/2000/svg">
<g id="solar:camera-linear">
<g id="Group">
<path id="Vector" d="M9 12.7282C10.2426 12.7282 11.25 11.6857 11.25 10.3997C11.25 9.11377 10.2426 8.07129 9 8.07129C7.75736 8.07129 6.75 9.11377 6.75 10.3997C6.75 11.6857 7.75736 12.7282 9 12.7282Z" stroke="#1370E4" stroke-width="1.5"/>
<path id="Vector_2" d="M7.3335 16.6094H10.6665C13.0073 16.6094 14.178 16.6094 15.0187 16.0389C15.3815 15.7929 15.694 15.4753 15.9382 15.1044C16.5 14.2507 16.5 13.0608 16.5 10.6827C16.5 8.30382 16.5 7.11476 15.9382 6.261C15.694 5.89008 15.3815 5.57255 15.0187 5.32651C14.4787 4.95939 13.8022 4.82822 12.7665 4.78166C12.2722 4.78166 11.847 4.40134 11.7502 3.90849C11.6763 3.54748 11.4842 3.22395 11.2064 2.99259C10.9286 2.76124 10.5821 2.63623 10.2255 2.63871H7.7745C7.0335 2.63871 6.39525 3.17037 6.24975 3.90849C6.153 4.40134 5.72775 4.78166 5.2335 4.78166C4.1985 4.82822 3.522 4.96017 2.98125 5.32651C2.61871 5.5726 2.30653 5.89013 2.0625 6.261C1.5 7.11476 1.5 8.30382 1.5 10.6827C1.5 13.0608 1.5 14.2499 2.06175 15.1044C2.30475 15.4739 2.61675 15.7913 2.98125 16.0389C3.822 16.6094 4.99275 16.6094 7.3335 16.6094Z" stroke="#1370E4" stroke-width="1.5"/>
<path id="Vector_3" d="M14.25 8.07129H13.5" stroke="#1370E4" stroke-width="1.5" stroke-linecap="round"/>
</g>
</g>
</svg>
