<svg width="18" height="20" viewBox="0 0 18 20" fill="none" xmlns="http://www.w3.org/2000/svg">
<g id="solar:camera-linear">
<g id="Group">
<path id="Vector" d="M9 13.0389C10.2426 13.0389 11.25 11.9839 11.25 10.6825C11.25 9.38115 10.2426 8.32617 9 8.32617C7.75736 8.32617 6.75 9.38115 6.75 10.6825C6.75 11.9839 7.75736 13.0389 9 13.0389Z" stroke="#4F9CD1" stroke-width="1.5"/>
<path id="Vector_2" d="M7.3335 16.9663H10.6665C13.0073 16.9663 14.178 16.9663 15.0187 16.389C15.3815 16.14 15.694 15.8186 15.9382 15.4433C16.5 14.5793 16.5 13.3752 16.5 10.9686C16.5 8.56116 16.5 7.35785 15.9382 6.49386C15.694 6.1185 15.3815 5.79717 15.0187 5.54818C14.4787 5.17666 13.8022 5.04392 12.7665 4.99679C12.2722 4.99679 11.847 4.61192 11.7502 4.11316C11.6763 3.74782 11.4842 3.42042 11.2064 3.18629C10.9286 2.95216 10.5821 2.82565 10.2255 2.82816H7.7745C7.0335 2.82816 6.39525 3.3662 6.24975 4.11316C6.153 4.61192 5.72775 4.99679 5.2335 4.99679C4.1985 5.04392 3.522 5.17744 2.98125 5.54818C2.61871 5.79721 2.30653 6.11855 2.0625 6.49386C1.5 7.35785 1.5 8.56116 1.5 10.9686C1.5 13.3752 1.5 14.5785 2.06175 15.4433C2.30475 15.8172 2.61675 16.1384 2.98125 16.389C3.822 16.9663 4.99275 16.9663 7.3335 16.9663Z" stroke="#4F9CD1" stroke-width="1.5"/>
<path id="Vector_3" d="M14.25 8.32617H13.5" stroke="#4F9CD1" stroke-width="1.5" stroke-linecap="round"/>
</g>
</g>
</svg>
