<svg width="24" height="24" viewBox="0 0 24 24" fill="none" xmlns="http://www.w3.org/2000/svg">
<g id="svgexport-6 (2) 1">
<g id="Group">
<path id="Vector" fill-rule="evenodd" clip-rule="evenodd" d="M6.05434 0H13.7917L20.3485 7.09007V20.8792C20.3485 22.5982 18.9973 24 17.3403 24H6.05434C4.39024 24 3.04614 22.5982 3.04614 20.8792V3.12082C3.04614 1.39442 4.39024 0 6.05434 0Z" fill="#FFB11F"/>
<g id="Group_2">
<path id="Vector_2" fill-rule="evenodd" clip-rule="evenodd" d="M13.7847 0V7.03106H20.3486L13.7847 0Z" fill="white"/>
<path id="Vector_3" d="M9.41809 12.4685V10.8306C9.41809 10.6536 9.28296 10.5134 9.11229 10.5134H8.2589C8.08823 10.5134 7.9531 10.6536 7.9531 10.8306V12.4685L7.47663 13.9146C7.3415 14.3203 7.40552 14.7704 7.6473 15.1172C7.88199 15.4639 8.27311 15.6705 8.6856 15.6705C9.09808 15.6705 9.4821 15.4639 9.72389 15.1172C9.96568 14.7704 10.0297 14.3204 9.89456 13.9146L9.41809 12.4685ZM9.21898 14.7409C8.97719 15.1024 8.39403 15.1024 8.14514 14.7409C8.02425 14.5638 7.98868 14.3277 8.05979 14.1211L8.21626 13.6342H9.14786L9.31143 14.1211C9.37544 14.3277 9.34697 14.5638 9.21898 14.7409ZM6.79395 1.71904V2.61914C6.79395 2.79621 6.92907 2.93639 7.09975 2.93639H8.25893V4.27917H7.09975C6.92907 4.27917 6.79395 4.41935 6.79395 4.59642V5.28992C6.79395 5.46699 6.92907 5.61454 7.09975 5.61454H8.25893V6.94992H7.09975C6.92907 6.94992 6.79395 7.09011 6.79395 7.26717V7.96804C6.79395 8.14511 6.92907 8.28529 7.09975 8.28529H8.25893V9.30342C8.25893 9.48048 8.40116 9.62067 8.57183 9.62067H10.2715C10.4351 9.62067 10.5773 9.48048 10.5773 9.30342V8.60254C10.5773 8.43285 10.4351 8.28529 10.2715 8.28529H9.10522V6.94992H10.2715C10.4351 6.94992 10.5773 6.80973 10.5773 6.63267V5.93179C10.5773 5.75473 10.4351 5.61454 10.2715 5.61454H9.10522V4.27917H10.2715C10.4351 4.27917 10.5773 4.13161 10.5773 3.95455V3.26104C10.5773 3.08398 10.4351 2.93642 10.2715 2.93642H9.10522V1.71167L6.79395 1.71904Z" fill="white"/>
</g>
</g>
</g>
</svg>
