<svg width="24" height="24" viewBox="0 0 24 24" fill="none" xmlns="http://www.w3.org/2000/svg">
<g id="svgexport-10 (18) 1">
<g id="Group">
<path id="Vector" d="M6.63215 0C5.83692 0 5.18628 0.675 5.18628 1.5V22.5C5.18628 23.325 5.83692 24 6.63215 24H21.0908C21.886 24 22.5367 23.325 22.5367 22.5V6L16.7532 0H6.63215Z" fill="#E2E5E7"/>
<path id="Vector_2" d="M18.199 6H22.5366L16.7532 0V4.5C16.7532 5.325 17.4038 6 18.199 6Z" fill="#B0B7BD"/>
<path id="Vector_3" d="M22.5366 10.5L18.199 6H22.5366V10.5Z" fill="#CAD1D8"/>
<path id="Vector_4" d="M19.6448 19.5C19.6448 19.9125 19.3195 20.25 18.9219 20.25H3.01737C2.61975 20.25 2.29443 19.9125 2.29443 19.5V12C2.29443 11.5875 2.61975 11.25 3.01737 11.25H18.9219C19.3195 11.25 19.6448 11.5875 19.6448 12V19.5Z" fill="#F15642"/>
<path id="Vector_5" d="M5.4458 14.2102C5.4458 14.0122 5.59617 13.7962 5.83835 13.7962H7.17361C7.92546 13.7962 8.60213 14.3182 8.60213 15.3187C8.60213 16.2667 7.92546 16.7947 7.17361 16.7947H6.2085V17.5867C6.2085 17.8507 6.04656 18 5.83835 18C5.6475 18 5.4458 17.8507 5.4458 17.5867V14.2102ZM6.2085 14.5515V16.0455H7.17361C7.5611 16.0455 7.86763 15.6907 7.86763 15.3187C7.86763 14.8995 7.5611 14.5515 7.17361 14.5515H6.2085ZM9.73424 18C9.54339 18 9.33518 17.892 9.33518 17.6287V14.2222C9.33518 14.007 9.54339 13.8502 9.73424 13.8502H11.0579C13.6995 13.8502 13.6417 18 11.11 18H9.73424ZM10.0986 14.5822V17.2687H11.0579C12.6187 17.2687 12.6881 14.5822 11.0579 14.5822H10.0986ZM14.5786 14.6302V15.5835H16.0527C16.2609 15.5835 16.4691 15.7995 16.4691 16.0087C16.4691 16.2067 16.2609 16.3687 16.0527 16.3687H14.5786V17.628C14.5786 17.838 14.4348 17.9992 14.2323 17.9992C13.9779 17.9992 13.8224 17.838 13.8224 17.628V14.2215C13.8224 14.0062 13.9786 13.8495 14.2323 13.8495H16.2616C16.5161 13.8495 16.6665 14.0062 16.6665 14.2215C16.6665 14.4135 16.5161 14.6295 16.2616 14.6295H14.5786V14.6302Z" fill="white"/>
<path id="Vector_6" d="M18.922 20.25H5.18628V21H18.922C19.3196 21 19.645 20.6625 19.645 20.25V19.5C19.645 19.9125 19.3196 20.25 18.922 20.25Z" fill="#CAD1D8"/>
</g>
</g>
</svg>
