<svg width="24" height="24" viewBox="0 0 24 24" fill="none" xmlns="http://www.w3.org/2000/svg">
<g id="svgexport-18 1" clip-path="url(#clip0_660_34900)">
<g id="Group">
<path id="Vector" d="M13.8805 0.610032C13.824 0.562462 13.7579 0.528757 13.6872 0.511442C13.6164 0.494126 13.5428 0.49365 13.4718 0.510048L0.940943 3.51005C0.833894 3.53557 0.738458 3.59826 0.670439 3.68774C0.602419 3.77721 0.565895 3.8881 0.566915 4.00205V21.0021C0.566958 21.1215 0.608187 21.2369 0.683145 21.3275C0.758103 21.4181 0.861842 21.4779 0.975599 21.4961L13.5064 23.4961C13.7695 23.538 14.0156 23.3508 14.056 23.0779C14.0597 23.0528 14.0616 23.0275 14.0616 23.0021V1.00205C14.0619 0.926767 14.0457 0.85241 14.0143 0.784529C13.9829 0.716647 13.9372 0.656997 13.8805 0.610032Z" fill="#1565C0"/>
<path id="Vector_2" d="M23.2188 21.502H13.5796C13.3135 21.502 13.0977 21.2782 13.0977 21.002C13.0977 20.7259 13.3135 20.502 13.5796 20.502H22.7368V3.50203H13.5796C13.3135 3.50203 13.0977 3.27815 13.0977 3.00201C13.0977 2.72587 13.3135 2.50204 13.5796 2.50204H23.2187C23.4849 2.50204 23.7007 2.72592 23.7007 3.00206V21.0021C23.7007 21.2782 23.4849 21.502 23.2188 21.502Z" fill="#1565C0"/>
<path id="Vector_3" d="M8.76018 16.5021C8.65565 16.5019 8.55399 16.4666 8.47053 16.4013C8.38708 16.336 8.32635 16.2443 8.29751 16.1401L6.83235 10.822L5.36718 16.1401C5.26137 16.4054 4.96822 16.5316 4.71239 16.4218C4.65149 16.3956 4.59617 16.3573 4.54957 16.309C4.50297 16.2606 4.46602 16.2032 4.44084 16.1401L2.51304 9.14007C2.43234 8.87691 2.57259 8.59575 2.82625 8.51203C3.07991 8.42832 3.35092 8.57382 3.43162 8.83697C3.43447 8.84625 3.43704 8.85563 3.43939 8.86505L4.90451 14.182L6.36967 8.86407C6.47549 8.59871 6.76864 8.47257 7.02447 8.58235C7.08536 8.60848 7.14069 8.64681 7.18728 8.69515C7.23388 8.74349 7.27083 8.80089 7.29602 8.86407L8.76018 14.1821L10.2253 8.8651C10.2947 8.60194 10.5566 8.44693 10.8102 8.51888L10.821 8.52207C11.0768 8.5981 11.2248 8.87471 11.1516 9.14007L9.22381 16.1401C9.19492 16.2444 9.13404 16.3362 9.0504 16.4016C8.96675 16.4669 8.86488 16.5022 8.76018 16.5021Z" fill="#FAFAFA"/>
<path id="Vector_4" d="M21.2909 6.50203H13.5796C13.3135 6.50203 13.0977 6.27816 13.0977 6.00201C13.0977 5.72587 13.3135 5.502 13.5796 5.502H21.2909C21.5571 5.502 21.7729 5.72587 21.7729 6.00201C21.7729 6.2782 21.5571 6.50203 21.2909 6.50203ZM21.2909 9.50203H13.5796C13.3135 9.50203 13.0977 9.27816 13.0977 9.00201C13.0977 8.72587 13.3135 8.502 13.5796 8.502H21.2909C21.5571 8.502 21.7729 8.72587 21.7729 9.00201C21.7729 9.27816 21.5571 9.50203 21.2909 9.50203ZM21.2909 12.502H13.5796C13.3135 12.502 13.0977 12.2782 13.0977 12.002C13.0977 11.7259 13.3135 11.502 13.5796 11.502H21.2909C21.5571 11.502 21.7729 11.7259 21.7729 12.002C21.7729 12.2782 21.5571 12.502 21.2909 12.502ZM21.2909 15.502H13.5796C13.3135 15.502 13.0977 15.2782 13.0977 15.002C13.0977 14.7259 13.3135 14.502 13.5796 14.502H21.2909C21.5571 14.502 21.7729 14.7259 21.7729 15.002C21.7729 15.2782 21.5571 15.502 21.2909 15.502ZM21.2909 18.502H13.5796C13.3135 18.502 13.0977 18.2782 13.0977 18.002C13.0977 17.7259 13.3135 17.502 13.5796 17.502H21.2909C21.5571 17.502 21.7729 17.7259 21.7729 18.002C21.7729 18.2782 21.5571 18.502 21.2909 18.502Z" fill="#1565C0"/>
</g>
</g>
<defs>
<clipPath id="clip0_660_34900">
<rect width="23.1339" height="24" fill="white" transform="translate(0.566895)"/>
</clipPath>
</defs>
</svg>
